<?xml version="1.0" standalone="no"?>
<!DOCTYPE svg PUBLIC "-//W3C//DTD SVG 20010904//EN"
 "http://www.w3.org/TR/2001/REC-SVG-20010904/DTD/svg10.dtd">
<svg version="1.0" xmlns="http://www.w3.org/2000/svg"
 width="300.000000pt" height="300.000000pt" viewBox="0 0 300.000000 300.000000"
 preserveAspectRatio="xMidYMid meet">
<metadata>
Created by potrace 1.10, written by Peter Selinger 2001-2011
</metadata>
<g transform="translate(0.000000,300.000000) scale(0.100000,-0.100000)"
fill="#000000" stroke="none">
<path d="M1362 2489 c-73 -9 -153 -43 -203 -87 -38 -34 -91 -124 -107 -184
l-10 -37 51 53 c97 98 225 143 382 133 102 -7 176 -26 226 -60 31 -20 71 -70
82 -100 2 -7 7 -9 11 -6 3 3 -10 37 -29 76 -80 161 -218 233 -403 212z m214
-48 c50 -22 86 -53 92 -80 2 -9 -3 -11 -15 -6 -79 33 -101 37 -223 32 -69 -2
-135 -7 -146 -10 -28 -7 -101 -44 -135 -68 -24 -17 -28 -17 -33 -3 -3 8 -2 12
4 9 6 -3 10 1 10 9 0 22 67 89 81 80 8 -4 9 -3 5 4 -8 13 17 25 94 48 68 21
203 13 266 -15z"/>
<path d="M2419 2176 c-6 -5 -256 -12 -1249 -37 -481 -12 -875 -22 -876 -23 0
0 3 -77 7 -171 11 -250 38 -1001 41 -1142 3 -132 18 -161 18 -34 0 159 50 829
74 997 21 141 55 194 148 228 40 14 1451 145 1758 163 60 3 110 10 110 15 0 8
-23 11 -31 4z m-819 -57 c-190 -17 -250 -20 -250 -11 0 5 44 10 97 11 54 1 99
4 102 7 2 2 34 3 70 3 l66 -2 -85 -8z m-332 -5 c39 -4 72 -10 72 -14 0 -4 -66
-12 -147 -19 -82 -7 -170 -14 -198 -17 -27 -3 -102 -9 -165 -14 -205 -14 -238
-21 -307 -62 -54 -33 -83 -76 -102 -153 -8 -35 -26 -205 -60 -575 l-8 -95 -2
125 c-2 69 -4 132 -5 140 -2 8 -6 134 -11 280 -4 146 -8 281 -9 300 -4 62 7
84 42 87 20 2 32 -2 32 -10 0 -8 4 -7 10 3 7 10 10 11 10 2 0 -9 5 -9 17 -2
10 6 153 14 328 18 171 4 337 9 370 10 33 1 93 -1 133 -4z"/>
<path d="M2590 1953 c0 -137 -14 -412 -36 -703 -26 -348 -37 -395 -107 -457
-58 -51 6 -44 -1307 -148 -656 -51 -685 -55 -450 -49 107 2 499 11 870 19 371
8 740 17 820 20 80 2 174 5 209 5 l64 0 -7 163 c-15 381 -35 993 -37 1125 0
78 -5 142 -10 142 -5 0 -9 -53 -9 -117z m19 -798 c6 -187 13 -375 15 -417 3
-65 1 -76 -13 -76 -9 1 -137 -2 -286 -6 -148 -4 -397 -9 -553 -11 -155 -2
-286 -6 -290 -9 -4 -2 -14 -1 -21 3 -6 4 57 13 141 20 84 7 223 19 308 26 85
8 211 17 280 21 252 12 334 72 361 262 5 37 11 77 13 89 3 12 8 63 12 115 4
51 8 100 9 108 1 8 2 62 3 119 1 57 4 102 6 100 2 -2 9 -157 15 -344z m-1206
-522 c-18 -2 -48 -2 -65 0 -18 2 -4 4 32 4 36 0 50 -2 33 -4z"/>
<path d="M1010 1676 l0 -94 55 -41 c30 -22 59 -41 65 -41 6 0 35 19 65 41 l55
41 0 94 0 94 -120 0 -120 0 0 -94z m219 -6 c0 -44 -4 -80 -7 -80 -4 0 -23 -14
-42 -30 -19 -16 -41 -30 -47 -30 -7 0 -33 15 -57 33 l-45 32 1 70 c0 39 2 73
5 78 2 4 47 7 98 7 l94 0 0 -80z"/>
<path d="M1108 1728 c-17 -15 -68 -101 -68 -117 0 -21 50 -24 71 -5 20 18 21
18 34 1 17 -23 62 -22 70 2 7 22 -58 131 -78 131 -7 0 -20 -6 -29 -12z m65
-68 c23 -41 25 -50 12 -50 -9 0 -24 13 -33 30 -21 37 -27 37 -42 0 -8 -19 -20
-30 -32 -30 -18 0 -17 4 9 50 15 27 35 50 43 50 8 0 28 -23 43 -50z"/>
<path d="M1320 1650 l0 -70 46 0 c50 0 59 22 11 28 -26 3 -27 6 -27 58 0 41
-4 54 -15 54 -12 0 -15 -14 -15 -70z"/>
<path d="M1690 1651 l0 -69 38 0 c46 0 62 12 62 49 0 34 -36 65 -57 47 -10 -8
-13 -5 -13 16 0 16 -5 26 -15 26 -12 0 -15 -14 -15 -69z m73 -5 c7 -19 -17
-51 -31 -42 -13 8 -16 39 -5 49 11 12 31 8 36 -7z"/>
<path d="M1879 1713 c-1 -5 0 -16 1 -26 1 -16 -2 -17 -19 -8 -17 9 -24 8 -41
-9 -22 -22 -25 -42 -10 -70 8 -14 20 -19 50 -17 l40 1 0 68 c0 39 -4 68 -10
68 -5 0 -11 -3 -11 -7z m-5 -70 c8 -19 -17 -48 -33 -39 -12 8 -15 39 -4 49 12
12 31 7 37 -10z"/>
<path d="M1566 1681 c-3 -5 -15 -7 -26 -4 -18 5 -20 0 -20 -46 0 -38 4 -51 14
-51 10 0 16 13 18 38 2 25 8 37 18 37 11 0 14 -10 13 -37 -2 -27 2 -38 12 -38
9 0 15 13 17 38 2 25 8 37 18 37 10 0 16 -12 18 -37 5 -54 32 -52 32 1 0 50
-22 76 -52 60 -14 -8 -23 -8 -31 0 -13 13 -24 14 -31 2z"/>
<path d="M1423 1668 c2 -8 15 -12 30 -10 15 2 27 -1 27 -7 0 -6 -13 -11 -29
-11 -32 0 -48 -24 -30 -46 6 -7 28 -12 50 -12 38 0 39 1 39 37 0 20 -5 42 -12
49 -16 16 -81 16 -75 0z m57 -53 c0 -8 -9 -15 -20 -15 -20 0 -26 11 -13 23 12
13 33 7 33 -8z"/>
<path d="M1920 1670 c0 -5 11 -10 24 -10 14 0 28 -4 31 -10 4 -6 -6 -10 -23
-10 -33 0 -49 -24 -31 -46 6 -7 28 -12 50 -12 36 0 39 2 39 30 0 48 -16 68
-55 68 -19 0 -35 -4 -35 -10z m60 -50 c0 -12 -28 -25 -36 -17 -9 9 6 27 22 27
8 0 14 -5 14 -10z"/>
<path d="M2322 1402 c6 -17 89 -85 95 -79 3 4 -14 25 -38 46 -41 38 -65 51
-57 33z"/>
<path d="M610 1370 c-25 -25 -26 -61 -2 -88 20 -23 62 -39 62 -23 0 6 -6 11
-13 11 -36 0 -60 63 -35 88 26 26 88 0 88 -36 0 -7 5 -12 10 -12 18 0 10 31
-15 55 -29 30 -68 32 -95 5z"/>
<path d="M2308 1341 c-33 -31 -35 -44 -8 -71 26 -26 43 -25 76 5 l28 26 -35
33 -34 34 -27 -27z m57 -29 c8 -20 -19 -47 -39 -39 -26 10 -32 38 -12 53 21
15 42 9 51 -14z"/>
<path d="M2233 1296 c5 -11 -2 -25 -19 -41 l-26 -24 28 -35 c34 -42 53 -38 22
5 -21 27 -21 30 -5 46 16 16 19 15 47 -12 31 -30 42 -25 14 6 -8 9 -17 26 -18
36 -2 10 -7 18 -12 18 -5 0 -15 4 -23 9 -11 7 -13 5 -8 -8z"/>
<path d="M690 1261 c-16 -31 -12 -48 17 -71 l26 -21 29 28 c33 31 34 36 11 63
-22 26 -69 26 -83 1z m64 -14 c13 -21 -15 -53 -38 -44 -19 8 -21 38 -4 55 15
15 28 11 42 -11z"/>
<path d="M776 1190 c-29 -45 -22 -54 13 -14 15 17 28 23 41 19 12 -4 20 -2 20
4 0 6 -7 11 -15 11 -8 0 -15 5 -15 10 0 21 -18 8 -44 -30z"/>
<path d="M2142 1204 c-28 -19 -28 -55 -1 -80 19 -17 23 -17 47 -3 34 19 39 52
13 78 -25 25 -30 26 -59 5z m52 -26 c7 -12 6 -21 -3 -32 -18 -22 -38 -20 -51
3 -7 15 -6 24 6 36 19 18 33 16 48 -7z"/>
<path d="M847 1179 c-40 -23 -43 -70 -5 -90 21 -11 61 -3 53 12 -4 5 -2 9 3 9
13 0 23 27 16 44 -8 21 -48 35 -67 25z m43 -24 c7 -9 10 -18 7 -21 -6 -7 -47
18 -47 28 0 14 27 9 40 -7z m-24 -29 c22 -17 11 -35 -13 -20 -19 12 -29 34
-16 34 5 0 18 -6 29 -14z"/>
<path d="M2025 1173 c-16 -8 -31 -17 -33 -18 -6 -5 52 -115 60 -115 11 0 10
28 -2 35 -16 10 -12 19 21 37 24 14 30 23 27 45 -4 34 -30 40 -73 16z m59 -11
c7 -11 -5 -27 -31 -41 -18 -9 -24 -8 -32 6 -7 14 -5 21 12 30 26 14 44 16 51
5z"/>
<path d="M925 1116 c-30 -30 -31 -40 -4 -67 21 -21 50 -22 56 -2 3 7 -3 10
-15 7 -10 -3 -24 2 -32 11 -19 23 -6 29 29 11 40 -21 43 -20 39 10 -2 15 -13
33 -25 41 -20 14 -24 13 -48 -11z m55 -11 c7 -9 11 -18 8 -21 -8 -8 -58 18
-52 27 8 14 30 10 44 -6z"/>
<path d="M1007 1065 c-19 -39 -21 -55 -9 -55 4 0 13 14 19 30 8 20 18 30 32
30 12 0 21 5 21 10 0 6 -4 10 -9 10 -5 0 -16 2 -23 5 -9 4 -20 -7 -31 -30z"/>
<path d="M1145 1078 c-17 -45 -32 -108 -27 -112 9 -10 22 5 22 25 0 21 21 25
52 8 15 -8 18 -17 14 -35 -4 -14 -2 -24 4 -24 9 0 14 18 12 49 0 8 6 20 14 28
19 20 18 30 -8 47 -35 21 -78 29 -83 14z m54 -19 c36 -13 36 -33 0 -37 -32 -3
-51 11 -43 31 7 20 3 20 43 6z"/>
<path d="M1880 1065 c-21 -25 -4 -48 31 -41 22 4 29 2 26 -7 -2 -6 -16 -11
-31 -10 -17 1 -26 -2 -23 -10 5 -18 39 -20 61 -4 28 20 14 47 -24 47 -16 0
-30 4 -30 9 0 13 28 22 35 11 10 -16 25 -11 19 5 -8 19 -48 19 -64 0z"/>
<path d="M1792 1038 c-26 -26 -7 -48 41 -48 17 0 18 -3 9 -12 -10 -10 -17 -10
-33 0 -18 12 -20 11 -17 -5 4 -23 37 -28 62 -10 28 20 14 47 -24 47 -16 0 -30
4 -30 9 0 14 27 20 39 8 13 -13 26 -3 16 12 -8 15 -48 14 -63 -1z"/>
<path d="M1528 1035 c-4 -4 -4 -14 -1 -22 5 -12 1 -14 -15 -9 -47 15 -81 -39
-53 -83 8 -13 67 -19 78 -8 2 3 3 33 1 67 -2 34 -6 59 -10 55z m-9 -59 c16
-19 -4 -59 -26 -54 -26 5 -39 34 -24 52 17 20 35 20 50 2z"/>
<path d="M1557 978 c5 -60 9 -76 17 -67 6 8 -6 129 -14 129 -4 0 -5 -28 -3
-62z"/>
<path d="M1696 1014 c-19 -18 -20 -38 -6 -65 12 -22 59 -26 78 -7 28 28 2 88
-38 88 -10 0 -26 -7 -34 -16z m58 -13 c3 -5 -8 -11 -24 -13 -29 -4 -37 1 -23
15 9 10 41 9 47 -2z m6 -36 c-14 -17 -46 -20 -55 -6 -3 5 7 12 22 14 16 2 32
5 37 6 5 0 3 -6 -4 -14z"/>
<path d="M1252 1008 c-19 -19 -15 -66 7 -78 26 -13 34 -13 57 5 18 15 17 16
-12 10 -22 -4 -35 -1 -45 11 -13 16 -11 17 25 10 44 -8 61 6 45 36 -11 21 -59
24 -77 6z m58 -13 c10 -12 10 -15 -3 -15 -8 0 -23 3 -32 6 -13 5 -14 8 -3 15
18 12 24 11 38 -6z"/>
<path d="M1350 991 c-24 -47 -5 -81 46 -81 29 0 32 3 38 38 9 57 9 59 -34 60
-30 1 -42 -3 -50 -17z m65 -11 c12 -20 -6 -50 -31 -50 -18 0 -24 5 -24 23 0
13 3 27 7 30 10 10 41 8 48 -3z"/>
<path d="M1584 986 c3 -12 6 -33 6 -48 0 -16 5 -28 11 -28 8 0 10 12 6 34 -7
45 17 71 39 41 8 -10 14 -29 14 -42 0 -13 5 -23 10 -23 10 0 4 63 -7 82 -2 4
-22 7 -44 6 -36 -1 -40 -4 -35 -22z"/>
</g>
</svg>
