<svg id="svg" xmlns="http://www.w3.org/2000/svg" xmlns:xlink="http://www.w3.org/1999/xlink" width="400" height="400" viewBox="0, 0, 400,400"><g id="svgg"><path id="path0" d="M134.638 164.106 C 134.560 164.308,134.531 169.989,134.573 176.730 L 134.649 188.987 136.303 190.180 C 137.747 191.222,139.767 192.733,144.298 196.162 C 151.254 201.424,150.333 201.218,154.176 198.375 C 155.819 197.160,157.476 195.943,157.857 195.671 C 158.238 195.398,159.225 194.639,160.050 193.983 C 160.875 193.327,162.537 192.085,163.743 191.224 C 167.345 188.650,166.976 190.403,166.889 176.252 L 166.813 163.889 150.796 163.813 C 138.136 163.754,134.749 163.815,134.638 164.106 M175.926 171.540 C 175.454 172.012,175.711 188.819,176.194 189.004 C 177.036 189.327,187.671 189.204,187.878 188.869 C 187.984 188.697,187.690 187.940,187.225 187.188 L 186.380 185.819 182.956 185.736 L 179.532 185.654 179.532 178.499 L 179.532 171.345 177.827 171.345 C 176.888 171.345,176.033 171.433,175.926 171.540 M225.731 180.249 L 225.731 189.181 227.023 189.181 C 228.776 189.181,229.240 188.955,229.240 188.101 L 229.240 187.375 230.130 188.124 C 233.648 191.084,238.360 188.320,238.802 183.037 C 239.309 176.993,233.443 173.066,229.793 177.006 L 229.094 177.762 229.094 174.627 L 229.094 171.491 227.412 171.404 L 225.731 171.316 225.731 180.249 M250.195 171.540 C 250.088 171.647,250.000 173.060,250.000 174.680 L 250.000 177.626 249.282 176.852 C 245.752 173.045,239.940 177.164,240.419 183.133 C 240.836 188.329,245.886 191.170,249.196 188.070 L 250.000 187.317 250.000 188.098 C 250.000 188.981,250.707 189.289,252.372 189.130 L 253.363 189.035 253.440 180.190 L 253.517 171.345 251.954 171.345 C 251.094 171.345,250.302 171.433,250.195 171.540 M153.272 173.099 C 153.623 173.904,154.018 174.561,154.148 174.561 C 154.279 174.561,154.386 174.676,154.386 174.815 C 154.386 174.955,155.624 177.223,157.138 179.856 C 160.277 185.317,160.254 185.088,157.645 185.088 L 155.676 185.088 153.256 180.848 C 151.925 178.516,150.793 176.608,150.740 176.608 C 150.630 176.608,147.097 182.696,146.370 184.137 C 145.893 185.084,145.882 185.088,143.675 185.088 C 141.009 185.088,140.898 185.706,144.754 179.038 C 146.353 176.274,147.661 173.873,147.661 173.702 C 147.661 173.531,147.760 173.392,147.882 173.392 C 148.003 173.392,148.278 172.997,148.491 172.515 C 148.864 171.671,148.952 171.637,150.757 171.637 L 152.634 171.637 153.272 173.099 M191.965 175.913 C 189.737 176.448,189.669 176.532,190.257 178.032 C 190.670 179.083,190.844 179.250,191.354 179.085 C 194.283 178.139,197.368 178.958,197.368 180.682 C 197.368 181.520,197.339 181.538,196.480 181.239 C 195.323 180.835,191.902 181.049,190.816 181.592 C 186.894 183.554,188.711 189.461,193.178 189.269 C 193.553 189.253,194.104 189.227,194.404 189.211 C 194.703 189.194,195.432 188.852,196.025 188.450 C 197.333 187.562,197.306 187.564,197.421 188.377 C 197.505 188.968,197.678 189.035,199.123 189.035 L 200.731 189.035 200.812 184.710 C 200.963 176.639,198.626 174.315,191.965 175.913 M209.064 175.766 C 208.662 175.926,207.971 176.403,207.529 176.826 L 206.725 177.595 206.725 176.649 L 206.725 175.703 204.898 175.790 L 203.070 175.877 203.070 182.456 L 203.070 189.035 204.212 189.129 C 206.765 189.338,206.725 189.407,206.725 184.775 C 206.725 180.616,207.074 178.983,207.975 178.924 C 208.172 178.911,208.728 178.872,209.211 178.838 C 211.087 178.704,211.404 179.515,211.404 184.458 C 211.404 189.297,211.356 189.185,213.401 189.177 C 215.139 189.170,215.152 189.136,215.256 184.290 C 215.363 179.288,215.509 178.914,217.370 178.861 C 219.428 178.803,219.715 179.456,219.883 184.583 L 220.029 189.035 221.171 189.129 C 221.799 189.180,222.634 189.141,223.027 189.043 L 223.741 188.864 223.639 183.686 C 223.547 178.962,223.482 178.419,222.897 177.485 C 221.384 175.072,217.916 174.764,215.465 176.826 L 214.570 177.579 213.937 176.810 C 212.886 175.534,210.783 175.083,209.064 175.766 M258.340 175.907 C 257.378 176.141,256.490 176.434,256.366 176.558 C 255.970 176.954,257.061 179.286,257.554 179.096 C 258.640 178.680,261.422 178.592,262.280 178.947 C 263.775 179.566,264.511 181.857,263.035 181.295 C 261.981 180.895,258.172 181.081,257.175 181.582 C 253.174 183.592,254.974 189.340,259.576 189.252 C 261.104 189.223,261.373 189.147,262.399 188.450 C 263.707 187.562,263.680 187.564,263.795 188.377 C 263.879 188.968,264.052 189.035,265.497 189.035 L 267.105 189.035 267.198 184.942 C 267.341 178.574,266.469 176.336,263.676 175.904 C 261.147 175.514,259.950 175.514,258.340 175.907 M234.382 179.677 C 236.771 183.322,233.404 188.098,230.342 185.410 C 228.185 183.516,228.879 179.396,231.474 178.685 C 232.543 178.392,233.828 178.830,234.382 179.677 M248.305 178.930 C 251.540 180.542,249.800 187.159,246.423 186.090 C 243.178 185.063,243.079 179.574,246.289 178.702 C 247.346 178.415,247.248 178.404,248.305 178.930 M197.261 183.685 C 198.306 184.730,196.729 186.513,194.544 186.758 C 191.935 187.051,191.147 184.209,193.567 183.233 C 194.324 182.927,196.807 183.232,197.261 183.685 M263.648 183.698 C 264.242 184.292,263.474 186.019,262.399 186.509 C 260.060 187.575,257.766 186.091,258.791 184.175 C 259.415 183.010,262.642 182.693,263.648 183.698 M310.082 212.875 C 309.966 213.063,310.117 213.445,310.418 213.724 C 313.829 216.886,321.645 223.684,321.869 223.684 C 322.936 223.684,321.776 222.371,316.754 217.894 C 310.840 212.622,310.429 212.313,310.082 212.875 M85.378 215.478 C 80.371 217.001,77.681 222.541,79.889 226.781 C 81.420 229.720,84.942 232.164,87.647 232.164 C 89.376 232.164,88.786 231.182,86.920 230.954 C 79.398 230.034,77.784 220.057,84.649 216.921 C 88.951 214.957,94.939 218.735,95.125 223.531 C 95.200 225.483,96.200 225.669,96.196 223.730 C 96.186 218.883,89.913 214.098,85.378 215.478 M310.658 218.445 C 310.550 218.619,310.830 219.145,311.280 219.614 L 312.098 220.468 310.784 220.468 C 306.486 220.468,303.762 225.890,306.254 229.485 C 309.537 234.223,316.655 232.713,317.188 227.166 L 317.329 225.702 318.025 226.356 C 318.568 226.866,318.799 226.932,319.074 226.657 C 319.348 226.383,318.529 225.406,315.346 222.217 C 311.179 218.042,310.997 217.896,310.658 218.445 M313.973 222.431 C 317.214 225.050,316.895 229.256,313.324 230.985 C 310.812 232.200,307.274 230.407,306.395 227.473 C 305.116 223.204,310.499 219.623,313.973 222.431 M298.043 226.944 C 297.794 227.249,297.980 227.640,298.855 228.652 L 299.990 229.964 299.107 230.655 C 298.392 231.214,298.290 231.426,298.572 231.766 C 298.868 232.123,299.050 232.063,299.776 231.371 L 300.631 230.556 301.142 231.184 C 303.305 233.840,307.184 238.005,307.421 237.926 C 308.104 237.698,307.715 237.090,304.673 233.626 L 301.463 229.971 302.373 229.141 C 303.624 228.000,303.069 227.366,301.725 228.402 L 300.795 229.119 299.581 227.834 C 298.603 226.799,298.304 226.626,298.043 226.944 M95.330 229.840 C 92.383 231.088,90.518 234.478,91.255 237.247 C 91.900 239.673,95.517 242.166,97.599 241.621 C 98.405 241.411,98.423 241.733,97.651 242.554 C 97.139 243.099,97.115 243.236,97.480 243.538 C 97.894 243.882,105.263 235.634,105.263 234.827 C 105.263 234.133,104.561 234.202,103.960 234.955 L 103.307 235.774 103.120 234.604 C 102.585 231.255,98.250 228.604,95.330 229.840 M99.568 231.214 C 102.322 232.697,102.924 236.167,100.862 238.669 C 97.016 243.335,89.796 238.640,92.837 233.451 C 94.378 230.823,97.138 229.905,99.568 231.214 M295.764 232.675 C 295.353 233.279,294.874 234.296,294.701 234.937 L 294.385 236.102 293.816 235.399 C 293.329 234.797,293.192 234.756,292.856 235.112 C 292.524 235.463,293.013 236.207,296.055 239.979 C 298.978 243.604,299.710 244.356,299.987 244.021 C 300.260 243.692,299.944 243.125,298.399 241.177 C 295.396 237.386,294.955 234.522,297.080 232.599 C 297.392 232.317,297.577 231.972,297.490 231.832 C 297.158 231.294,296.482 231.624,295.764 232.675 M104.117 241.393 C 101.178 245.506,100.666 246.491,101.463 246.491 C 101.606 246.491,102.535 245.402,103.528 244.072 C 106.403 240.217,108.203 239.246,110.703 240.201 C 111.612 240.548,112.133 240.615,112.337 240.412 C 113.007 239.741,109.668 238.506,108.030 238.819 C 107.245 238.969,107.244 238.968,107.741 238.211 C 108.212 237.492,108.152 236.842,107.615 236.842 C 107.479 236.842,105.906 238.890,104.117 241.393 M287.393 239.000 C 283.013 240.565,281.573 244.850,284.206 248.485 C 288.297 254.133,297.596 248.830,294.625 242.544 C 293.115 239.351,290.288 237.965,287.393 239.000 M291.169 240.177 C 295.072 242.207,295.057 247.491,291.144 249.385 C 286.498 251.634,281.687 245.734,284.977 241.824 C 286.530 239.978,289.347 239.229,291.169 240.177 M272.222 243.242 C 268.608 245.113,265.932 246.722,265.988 246.991 C 266.278 248.394,273.640 260.721,274.050 260.491 C 274.466 260.258,274.319 259.856,272.914 257.378 C 272.026 255.813,271.277 254.424,271.249 254.291 C 271.222 254.158,272.580 253.262,274.269 252.300 C 280.232 248.902,281.526 246.258,278.687 243.273 C 277.118 241.624,275.363 241.616,272.222 243.242 M113.720 243.077 C 109.330 244.701,107.878 250.010,111.012 252.980 C 113.019 254.882,116.228 255.504,118.112 254.355 C 119.460 253.533,118.720 252.999,117.145 253.657 C 113.544 255.162,109.322 251.456,110.516 247.839 C 110.969 246.465,110.666 246.368,115.818 249.541 C 120.830 252.628,120.668 252.616,121.381 249.951 C 122.466 245.895,117.688 241.608,113.720 243.077 M277.203 243.426 C 279.677 244.706,279.405 248.098,276.692 249.794 C 272.937 252.142,270.599 253.201,270.288 252.694 C 270.120 252.418,269.362 251.052,268.605 249.657 L 267.229 247.122 270.148 245.484 C 274.912 242.809,275.614 242.605,277.203 243.426 M118.240 244.754 C 120.134 246.052,120.992 248.582,120.089 250.206 C 119.735 250.842,119.677 250.818,115.932 248.492 C 111.281 245.603,111.505 245.818,112.329 245.034 C 113.806 243.632,116.422 243.508,118.240 244.754 M124.708 249.884 C 121.627 251.567,120.077 255.852,121.629 258.398 C 123.495 261.458,128.844 262.618,130.712 260.368 C 131.257 259.711,130.341 259.518,129.281 260.067 C 126.303 261.607,122.076 259.215,122.076 255.990 C 122.076 253.394,122.198 253.396,127.440 256.090 C 132.955 258.924,132.316 258.828,132.920 256.913 C 134.355 252.360,128.831 247.632,124.708 249.884 M128.392 250.625 C 130.963 251.486,132.368 253.469,132.025 255.753 C 131.921 256.449,131.776 257.018,131.703 257.018 C 131.546 257.018,123.302 252.910,123.121 252.742 C 122.851 252.491,124.736 250.847,125.574 250.603 C 126.818 250.242,127.257 250.245,128.392 250.625 M134.565 258.705 C 132.179 264.374,132.168 264.407,132.749 264.537 C 133.058 264.606,133.555 263.785,134.431 261.761 C 136.237 257.590,137.332 256.589,140.131 256.548 C 142.478 256.514,143.040 256.054,141.319 255.576 C 139.916 255.186,139.137 255.183,138.136 255.564 C 137.149 255.939,136.950 255.755,137.362 254.850 C 137.654 254.208,137.402 253.801,136.712 253.801 C 136.666 253.801,135.700 256.008,134.565 258.705 M153.490 255.377 C 152.850 256.518,149.331 270.778,149.659 270.903 C 150.250 271.130,150.225 271.182,151.155 267.742 C 151.615 266.044,152.068 264.530,152.162 264.378 C 152.349 264.076,158.872 265.816,160.280 266.544 C 161.895 267.380,162.204 268.640,161.473 271.415 C 160.995 273.229,160.928 273.863,161.194 274.028 C 162.633 274.917,163.524 267.820,162.120 266.654 C 161.523 266.159,161.593 265.789,162.285 265.789 C 165.590 265.789,166.194 259.924,163.059 258.274 C 162.336 257.893,153.568 255.239,153.490 255.377 M253.216 256.879 C 247.274 258.849,248.934 264.154,255.146 263.044 C 258.522 262.441,259.444 262.698,259.597 264.284 C 259.901 267.450,253.158 268.828,252.195 265.797 C 251.983 265.129,251.170 265.324,251.170 266.043 C 251.170 266.675,252.493 268.091,253.410 268.439 C 256.103 269.463,260.819 267.013,260.819 264.590 C 260.819 261.887,259.433 261.330,254.487 262.045 C 251.749 262.441,250.877 262.076,250.877 260.536 C 250.877 258.086,255.563 256.609,257.331 258.502 C 258.137 259.365,258.772 259.436,258.772 258.663 C 258.772 257.084,255.636 256.077,253.216 256.879 M158.490 257.740 C 163.614 259.173,164.853 260.282,164.006 262.678 C 163.151 265.097,161.248 265.541,156.868 264.343 C 153.078 263.307,152.632 263.134,152.632 262.695 C 152.632 261.737,154.226 256.725,154.531 256.725 C 154.713 256.725,156.495 257.182,158.490 257.740 M241.011 260.853 C 235.810 262.355,237.528 267.728,242.974 266.995 C 246.230 266.557,247.661 267.087,247.661 268.733 C 247.661 271.598,241.573 272.530,240.201 269.875 C 239.667 268.844,238.998 268.868,239.109 269.915 C 239.249 271.244,241.016 272.515,242.725 272.515 C 247.531 272.515,250.574 268.826,247.763 266.409 C 246.980 265.735,246.841 265.718,243.725 265.903 C 239.996 266.125,239.181 265.837,239.181 264.297 C 239.181 261.771,243.639 260.468,245.507 262.448 C 246.784 263.802,247.557 263.740,246.874 262.339 C 246.064 260.677,243.697 260.077,241.011 260.853 M207.730 262.369 C 207.431 263.148,207.719 264.474,208.187 264.474 C 208.803 264.474,208.931 262.777,208.352 262.296 C 207.982 261.989,207.871 262.002,207.730 262.369 M204.094 265.531 L 204.094 268.824 203.500 268.187 C 200.838 265.330,195.240 266.370,193.878 269.975 C 191.528 276.195,198.797 281.639,203.360 277.076 L 204.094 276.342 204.094 277.352 C 204.094 278.170,204.206 278.363,204.683 278.363 C 205.540 278.363,205.463 262.501,204.605 262.336 C 204.142 262.247,204.094 262.552,204.094 265.531 M228.692 263.888 C 223.979 265.358,223.413 272.726,227.836 275.028 C 230.890 276.616,236.550 274.139,236.550 271.213 C 236.550 270.453,235.677 270.709,235.353 271.564 C 233.923 275.341,227.957 275.612,226.407 271.971 C 225.886 270.748,225.320 271.005,231.272 269.760 C 237.171 268.527,236.738 268.740,236.304 267.293 C 235.360 264.140,232.288 262.767,228.692 263.888 M168.576 264.995 C 163.564 267.834,164.851 275.158,170.543 276.184 C 172.883 276.605,176.608 275.049,176.608 273.650 C 176.608 273.121,175.517 273.417,174.851 274.126 C 173.034 276.060,168.316 275.442,167.111 273.111 C 166.650 272.220,166.494 269.883,166.895 269.883 C 167.021 269.883,169.356 270.276,172.085 270.757 C 174.814 271.237,177.160 271.632,177.299 271.634 C 177.874 271.642,177.340 267.695,176.631 266.699 C 175.075 264.514,170.962 263.643,168.576 264.995 M232.213 264.629 C 233.388 264.955,235.088 266.660,235.088 267.512 C 235.088 267.964,234.472 268.167,231.067 268.839 C 228.856 269.276,226.731 269.709,226.345 269.801 C 225.668 269.962,225.649 269.922,225.812 268.708 C 226.076 266.735,227.590 265.088,229.568 264.620 C 230.947 264.295,231.012 264.295,232.213 264.629 M173.121 265.538 C 174.807 266.043,176.057 267.497,176.246 269.172 L 176.402 270.558 175.555 270.393 C 175.089 270.303,172.964 269.930,170.833 269.565 C 166.655 268.850,166.568 268.787,167.617 267.251 C 168.850 265.445,170.793 264.841,173.121 265.538 M216.813 265.682 C 216.491 265.754,215.934 265.875,215.576 265.951 C 215.217 266.028,214.475 266.484,213.926 266.965 L 212.930 267.840 212.746 267.107 C 212.365 265.590,211.599 266.230,211.786 267.909 C 212.881 277.773,212.920 278.001,213.485 277.853 C 213.862 277.755,213.989 277.519,213.898 277.087 C 212.413 270.014,213.632 266.667,217.694 266.667 C 220.540 266.667,221.022 267.494,221.659 273.465 C 221.979 276.472,222.092 276.901,222.562 276.901 C 223.206 276.901,223.207 277.171,222.543 271.990 C 221.842 266.528,220.359 264.895,216.813 265.682 M182.465 266.545 C 177.953 268.502,177.847 275.499,182.298 277.521 C 184.356 278.455,187.485 278.095,188.559 276.800 C 189.173 276.060,189.368 276.215,189.237 277.339 C 189.136 278.199,189.208 278.363,189.686 278.363 C 190.205 278.363,190.284 278.007,190.604 274.196 C 190.796 271.904,191.032 269.273,191.129 268.348 C 191.293 266.773,191.264 266.667,190.681 266.667 C 190.163 266.667,190.058 266.841,190.058 267.700 L 190.058 268.733 189.087 267.762 C 187.489 266.164,184.577 265.629,182.465 266.545 M207.995 269.371 C 208.094 270.859,208.261 273.490,208.367 275.219 C 208.543 278.092,208.609 278.363,209.138 278.363 C 209.663 278.363,209.701 278.220,209.546 276.827 C 209.452 275.983,209.298 273.648,209.205 271.637 C 208.999 267.218,208.897 266.667,208.288 266.667 C 207.873 266.667,207.837 267.000,207.995 269.371 M186.380 267.281 C 189.731 268.211,190.856 272.737,188.410 275.445 C 185.354 278.828,180.103 276.841,180.123 272.310 C 180.141 268.507,182.877 266.308,186.380 267.281 M201.759 268.077 C 203.872 269.183,204.703 272.533,203.488 275.043 C 201.780 278.572,196.607 278.563,195.002 275.029 C 192.913 270.429,197.411 265.801,201.759 268.077 " stroke="none" fill="#ba1d38" fill-rule="evenodd"></path><path id="path1" d="M183.918 67.502 C 183.918 67.640,182.898 67.839,181.652 67.945 C 160.739 69.729,144.347 84.652,140.062 105.811 C 139.295 109.600,139.297 109.601,141.596 106.666 C 152.933 92.190,170.221 84.203,190.197 84.214 C 214.997 84.226,228.684 89.803,236.325 103.009 C 239.315 108.178,239.696 108.129,238.147 102.776 C 232.883 84.586,215.915 69.675,198.533 67.962 C 197.410 67.851,196.491 67.646,196.491 67.506 C 196.491 67.366,193.662 67.251,190.205 67.251 C 186.747 67.251,183.918 67.364,183.918 67.502 M178.363 114.146 L 39.620 117.690 39.557 120.029 C 39.452 123.899,46.671 309.902,46.871 308.480 C 46.972 307.756,47.329 302.098,47.663 295.906 C 51.287 228.723,56.296 168.890,59.488 154.645 C 62.028 143.313,70.437 135.147,82.164 132.626 C 83.377 132.366,138.259 127.388,204.971 121.487 C 271.308 115.620,325.914 110.773,326.316 110.717 C 328.821 110.364,302.479 110.975,178.363 114.146 M346.399 127.778 C 346.275 130.431,345.848 139.839,345.451 148.684 C 342.488 214.585,339.025 262.069,336.070 277.325 C 333.980 288.109,327.831 295.455,317.690 299.282 C 313.325 300.929,314.636 300.810,189.181 310.955 C 122.361 316.359,67.312 320.874,66.850 320.989 C 65.816 321.247,50.367 321.575,214.543 317.861 C 290.810 316.136,353.290 314.644,353.389 314.545 C 353.583 314.351,347.230 131.075,346.853 126.023 L 346.625 122.953 346.399 127.778 M179.646 175.292 C 179.646 177.383,179.693 178.200,179.749 177.108 C 179.806 176.016,179.805 174.305,179.748 173.307 C 179.691 172.308,179.645 173.202,179.646 175.292 M195.249 175.645 C 195.610 175.715,196.202 175.715,196.564 175.645 C 196.926 175.575,196.630 175.518,195.906 175.518 C 195.183 175.518,194.887 175.575,195.249 175.645 M203.115 175.658 C 203.041 175.779,203.592 175.839,204.341 175.792 C 206.661 175.646,206.951 175.520,205.061 175.478 C 204.065 175.457,203.190 175.537,203.115 175.658 M216.520 175.780 C 216.199 175.958,215.649 176.362,215.299 176.679 C 214.923 177.019,214.505 177.165,214.276 177.035 C 213.966 176.859,213.961 176.893,214.251 177.205 C 214.549 177.527,214.727 177.486,215.276 176.971 C 215.641 176.628,216.399 176.148,216.961 175.904 C 217.523 175.661,217.785 175.460,217.544 175.459 C 217.303 175.458,216.842 175.602,216.520 175.780 M261.623 175.645 C 261.985 175.715,262.577 175.715,262.939 175.645 C 263.300 175.575,263.004 175.518,262.281 175.518 C 261.557 175.518,261.261 175.575,261.623 175.645 M235.526 176.072 C 235.848 176.250,236.381 176.608,236.710 176.867 C 237.039 177.127,236.939 176.977,236.486 176.535 C 236.034 176.093,235.501 175.735,235.302 175.740 C 235.104 175.745,235.205 175.894,235.526 176.072 M242.599 176.681 C 241.689 177.583,241.685 177.594,242.530 176.903 C 243.020 176.502,243.546 176.074,243.699 175.953 C 243.852 175.831,243.883 175.731,243.768 175.731 C 243.653 175.731,243.127 176.159,242.599 176.681 M199.448 177.033 C 199.708 177.362,200.066 177.895,200.244 178.216 C 200.421 178.538,200.571 178.639,200.576 178.440 C 200.581 178.242,200.223 177.709,199.781 177.257 C 199.338 176.804,199.189 176.703,199.448 177.033 M200.876 185.147 C 200.796 187.351,200.834 189.051,200.959 188.925 C 201.085 188.798,201.150 186.995,201.104 184.918 L 201.021 181.140 200.876 185.147 M240.126 182.456 C 240.126 183.019,240.186 183.249,240.260 182.968 C 240.334 182.686,240.334 182.226,240.260 181.944 C 240.186 181.663,240.126 181.893,240.126 182.456 M194.371 183.247 C 194.733 183.317,195.325 183.317,195.687 183.247 C 196.049 183.178,195.753 183.121,195.029 183.121 C 194.306 183.121,194.010 183.178,194.371 183.247 M260.746 183.247 C 261.107 183.317,261.700 183.317,262.061 183.247 C 262.423 183.178,262.127 183.121,261.404 183.121 C 260.680 183.121,260.384 183.178,260.746 183.247 M192.542 183.920 C 191.795 184.746,192.113 184.823,192.899 184.006 C 193.255 183.636,193.440 183.333,193.310 183.333 C 193.180 183.333,192.834 183.597,192.542 183.920 M190.480 188.727 C 190.792 188.977,191.253 189.171,191.503 189.158 C 191.897 189.138,191.899 189.113,191.520 188.972 C 191.279 188.883,190.819 188.689,190.497 188.541 C 189.922 188.276,189.921 188.279,190.480 188.727 M135.819 189.971 C 135.980 190.123,136.703 190.677,137.427 191.202 L 138.743 192.158 137.719 191.234 C 136.823 190.425,135.056 189.250,135.819 189.971 M161.696 192.726 C 160.677 193.619,160.677 193.620,161.614 192.997 C 162.132 192.652,162.633 192.245,162.728 192.092 C 163.010 191.635,162.776 191.779,161.696 192.726 " stroke="none" fill="#bc042c" fill-rule="evenodd"></path><path id="path2" d="M309.548 212.231 C 308.744 213.119,308.856 213.252,315.065 218.780 C 321.436 224.453,321.660 224.604,322.536 223.811 C 323.473 222.963,323.313 222.770,316.980 217.138 C 310.676 211.531,310.366 211.327,309.548 212.231 M316.598 217.562 C 322.708 223.015,322.783 223.098,322.114 223.652 C 321.494 224.167,309.598 213.518,309.983 212.792 C 310.398 212.011,310.301 211.941,316.598 217.562 M84.024 215.236 C 75.419 219.413,77.730 231.640,87.313 232.637 C 89.318 232.846,89.625 232.643,89.331 231.304 C 89.104 230.267,88.746 230.120,87.427 230.520 L 86.404 230.830 87.470 230.928 C 88.588 231.031,89.240 231.966,88.415 232.283 C 86.141 233.156,81.026 229.842,79.516 226.518 C 77.486 222.046,81.593 215.248,86.348 215.211 C 86.820 215.207,87.092 215.080,86.988 214.912 C 86.702 214.449,85.340 214.598,84.024 215.236 M88.012 214.912 C 87.670 215.133,87.751 215.197,88.377 215.200 C 88.819 215.203,89.181 215.073,89.181 214.912 C 89.181 214.543,88.584 214.543,88.012 214.912 M89.571 215.088 C 89.571 215.376,89.760 215.448,90.180 215.319 C 90.515 215.216,90.694 215.233,90.578 215.356 C 90.461 215.479,90.922 215.933,91.601 216.366 C 94.624 218.292,97.019 222.439,96.341 224.574 C 95.967 225.753,95.029 225.263,95.029 223.888 C 95.029 221.195,92.395 217.804,89.552 216.835 C 84.165 214.999,78.610 220.859,80.790 226.077 C 81.695 228.241,85.034 231.016,86.188 230.562 C 86.596 230.401,86.466 230.245,85.526 229.769 C 79.418 226.674,79.704 218.992,85.996 217.123 C 89.817 215.988,94.479 219.625,94.569 223.811 C 94.598 225.147,94.663 225.270,95.455 225.482 C 98.281 226.237,97.275 220.713,93.987 217.425 C 92.167 215.605,89.571 214.231,89.571 215.088 M310.089 217.835 C 309.534 218.448,309.533 218.838,310.084 219.296 C 310.324 219.494,310.448 219.774,310.360 219.916 C 310.272 220.059,310.493 220.175,310.852 220.175 L 311.505 220.175 310.865 219.494 C 310.249 218.838,310.245 218.794,310.754 218.333 C 311.569 217.596,320.003 226.028,319.227 226.805 C 318.761 227.270,318.698 227.270,318.173 226.794 C 317.634 226.306,317.607 226.328,317.413 227.399 C 316.145 234.406,306.222 234.026,305.087 226.927 C 304.743 224.773,307.480 220.468,309.193 220.468 C 309.390 220.468,309.552 220.278,309.552 220.046 C 309.552 219.418,307.717 220.245,306.503 221.420 C 303.020 224.791,304.069 230.190,308.626 232.344 C 312.139 234.005,316.383 232.120,317.497 228.405 C 317.782 227.453,317.941 227.294,318.502 227.401 C 319.421 227.577,320.335 226.568,319.925 225.828 C 319.317 224.729,311.712 217.437,311.128 217.394 C 310.798 217.369,310.331 217.568,310.089 217.835 M309.651 221.807 C 305.412 223.660,305.362 228.686,309.562 230.813 C 310.585 231.331,313.015 231.473,312.721 230.998 C 312.618 230.830,312.739 230.784,313.008 230.887 C 313.687 231.148,315.715 228.909,315.955 227.634 C 316.639 223.988,312.794 220.434,309.651 221.807 M313.031 222.657 C 316.358 224.607,316.061 228.615,312.447 230.533 C 311.204 231.192,310.259 230.891,308.371 229.234 C 304.561 225.888,308.664 220.097,313.031 222.657 M298.418 225.981 C 298.301 226.171,298.100 226.260,297.972 226.181 C 296.923 225.533,296.761 227.251,297.757 228.467 C 298.931 229.900,298.663 230.702,297.010 230.702 C 296.151 230.702,294.564 232.318,294.269 233.494 C 294.127 234.056,293.952 234.186,293.519 234.049 C 292.908 233.855,291.520 234.605,291.520 235.128 C 291.520 235.502,299.081 245.029,299.377 245.029 C 301.312 245.029,301.135 243.584,298.836 240.610 C 296.577 237.687,295.970 236.166,296.478 234.707 C 296.896 233.508,297.907 232.457,298.444 232.663 C 298.680 232.753,299.246 232.552,299.701 232.215 L 300.530 231.602 303.554 235.078 C 306.634 238.616,306.919 238.826,307.914 238.294 C 308.923 237.754,308.530 236.988,305.432 233.451 L 302.385 229.971 303.093 229.224 C 303.942 228.329,303.971 228.022,303.266 227.384 C 302.551 226.737,301.959 226.775,301.295 227.509 L 300.745 228.117 299.687 226.877 C 298.989 226.058,298.558 225.754,298.418 225.981 M299.812 227.849 L 300.843 229.090 301.714 228.256 C 303.126 226.903,303.824 227.842,302.463 229.263 L 301.710 230.049 304.974 233.750 C 307.670 236.806,308.177 237.525,307.885 237.877 C 307.350 238.522,307.388 238.554,303.956 234.646 C 300.424 230.626,300.598 230.756,299.854 231.579 C 299.249 232.247,298.806 232.315,298.308 231.817 C 298.040 231.548,298.176 231.287,298.907 230.671 L 299.854 229.872 298.718 228.700 C 297.992 227.949,297.646 227.361,297.759 227.067 C 298.056 226.293,298.734 226.551,299.812 227.849 M94.415 229.530 C 88.595 232.606,90.073 242.105,96.371 242.105 C 97.035 242.105,97.094 242.170,96.777 242.552 C 96.376 243.036,97.372 244.444,98.114 244.444 C 98.567 244.444,106.140 235.266,106.140 234.716 C 106.140 233.822,104.928 233.054,104.317 233.562 C 103.932 233.881,103.821 233.810,103.566 233.079 C 102.796 230.872,99.506 228.506,98.172 229.201 C 97.533 229.534,97.536 229.540,98.310 229.434 C 98.747 229.374,99.036 229.437,98.951 229.574 C 98.865 229.712,98.961 229.825,99.163 229.825 C 100.558 229.825,103.207 232.987,103.226 234.675 L 103.235 235.526 103.926 234.741 C 104.530 234.056,104.686 234.005,105.149 234.344 C 105.768 234.797,106.114 234.261,101.930 239.327 C 98.119 243.943,98.146 243.915,97.568 243.694 C 96.946 243.455,96.943 243.029,97.560 242.348 C 98.020 241.839,97.992 241.813,96.966 241.813 C 93.897 241.813,90.927 238.899,90.942 235.903 C 90.956 233.158,93.898 229.532,96.111 229.532 C 96.508 229.532,96.739 229.404,96.637 229.240 C 96.369 228.805,95.596 228.905,94.415 229.530 M95.243 231.309 C 92.827 232.585,91.673 235.341,92.640 237.528 C 93.238 238.880,94.802 240.233,95.365 239.886 C 95.576 239.755,95.625 239.803,95.496 240.013 C 95.373 240.211,95.469 240.351,95.726 240.351 C 96.552 240.351,96.484 239.834,95.609 239.472 C 91.890 237.931,92.338 232.799,96.323 231.293 C 98.919 230.312,102.353 233.705,101.470 236.380 C 101.111 237.466,98.826 239.766,98.106 239.766 C 97.861 239.766,97.661 239.898,97.661 240.058 C 97.661 241.306,100.579 239.191,101.574 237.222 C 103.454 233.502,98.989 229.332,95.243 231.309 M297.561 231.740 C 297.657 231.991,297.474 232.480,297.150 232.837 C 295.117 235.069,295.520 237.234,298.726 241.303 C 300.494 243.547,300.766 244.444,299.678 244.444 C 299.462 244.444,293.226 236.792,292.579 235.733 C 292.090 234.933,293.005 234.422,293.722 235.095 L 294.373 235.707 294.559 234.714 C 294.890 232.951,297.162 230.700,297.561 231.740 M103.728 240.769 C 100.166 245.735,99.912 246.267,100.858 246.773 C 101.909 247.336,102.295 247.082,103.939 244.748 C 106.819 240.661,108.516 239.750,111.001 240.953 L 112.373 241.617 112.924 240.936 C 114.051 239.544,112.338 238.221,109.165 238.032 C 108.971 238.020,108.893 237.757,108.983 237.414 C 109.150 236.775,108.388 235.985,107.602 235.982 C 107.361 235.981,105.618 238.135,103.728 240.769 M108.480 237.341 C 108.480 237.443,108.249 237.786,107.968 238.102 C 107.465 238.667,107.483 238.674,108.981 238.534 C 109.820 238.456,110.437 238.504,110.353 238.640 C 110.269 238.777,110.372 238.889,110.582 238.890 C 111.577 238.893,112.963 240.086,112.505 240.544 C 112.108 240.941,111.966 240.939,111.162 240.523 C 108.714 239.258,106.462 240.349,103.669 244.154 C 101.944 246.504,101.669 246.759,101.152 246.482 C 100.452 246.107,100.234 246.499,104.209 240.990 C 106.987 237.140,107.465 236.612,107.937 236.865 C 108.236 237.025,108.480 237.239,108.480 237.341 M286.355 238.451 C 282.826 239.935,281.094 244.326,282.778 247.519 C 285.479 252.638,291.295 252.831,294.972 247.922 C 296.669 245.656,295.268 240.573,292.470 238.843 C 291.254 238.091,287.745 237.866,286.355 238.451 M292.543 239.599 C 296.676 242.751,296.089 248.288,291.391 250.476 C 284.691 253.595,279.329 244.016,285.454 239.872 C 286.200 239.367,286.723 238.867,286.616 238.760 C 286.509 238.653,286.648 238.652,286.924 238.759 C 287.201 238.865,287.427 238.834,287.427 238.690 C 287.427 238.067,291.479 238.788,292.543 239.599 M287.281 240.320 C 284.074 241.805,283.222 244.788,285.173 247.695 C 285.902 248.782,287.839 249.987,288.214 249.587 C 288.344 249.449,288.292 249.279,288.099 249.209 C 283.481 247.556,283.493 241.676,288.117 240.399 C 293.053 239.037,295.209 246.734,290.449 248.723 C 289.379 249.170,288.923 249.708,289.614 249.708 C 290.392 249.708,292.303 248.604,292.950 247.781 C 295.969 243.944,291.671 238.288,287.281 240.320 M276.901 241.584 C 276.901 241.800,277.283 242.121,277.750 242.298 C 278.922 242.740,280.149 244.676,280.169 246.116 C 280.201 248.469,278.878 249.898,274.282 252.478 L 271.323 254.139 272.699 256.675 C 273.456 258.069,274.218 259.445,274.391 259.731 C 274.712 260.259,274.175 260.918,273.577 260.730 C 273.284 260.637,265.819 247.376,265.801 246.915 C 265.789 246.584,273.069 242.398,273.657 242.398 C 273.852 242.398,273.937 242.278,273.847 242.133 C 273.757 241.987,273.980 241.939,274.342 242.026 C 274.885 242.157,274.935 242.116,274.630 241.790 C 274.089 241.211,264.912 245.668,264.912 246.509 C 264.912 246.810,272.699 260.815,273.085 261.209 C 273.337 261.466,275.148 260.665,275.143 260.300 C 275.141 260.183,274.417 258.783,273.534 257.189 C 272.651 255.595,271.961 254.264,272.002 254.232 C 272.043 254.200,273.437 253.402,275.099 252.459 C 280.412 249.445,281.670 247.031,279.752 243.529 C 279.130 242.392,276.901 240.872,276.901 241.584 M112.707 242.655 C 109.143 244.274,107.562 249.714,109.831 252.548 C 111.904 255.135,115.930 256.237,118.421 254.900 C 120.905 253.565,119.677 251.721,117.059 252.854 L 115.704 253.441 114.279 252.848 C 112.329 252.038,111.111 250.609,111.111 249.130 C 111.111 247.388,111.353 247.446,115.994 250.309 C 119.368 252.390,120.421 252.911,120.789 252.682 C 121.214 252.416,121.222 252.492,120.876 253.460 C 119.392 257.616,121.875 261.250,126.772 262.090 C 129.629 262.581,133.282 259.987,131.121 259.002 C 130.358 258.655,128.363 259.367,128.363 259.988 C 128.363 260.357,128.743 260.286,129.462 259.782 C 130.273 259.214,131.553 259.707,131.000 260.374 C 128.268 263.665,120.760 260.501,120.760 256.058 C 120.760 253.445,123.054 250.021,125.107 249.570 C 126.082 249.356,126.370 248.830,125.512 248.832 C 124.799 248.833,123.079 249.910,122.312 250.835 L 121.671 251.608 122.117 250.292 C 123.157 247.229,121.442 243.970,118.040 242.549 C 117.053 242.136,116.959 242.138,116.959 242.571 C 116.959 242.879,117.118 242.984,117.413 242.871 C 117.702 242.760,117.793 242.816,117.665 243.024 C 117.546 243.215,117.619 243.298,117.841 243.225 C 118.324 243.064,120.681 245.198,121.263 246.323 C 122.200 248.135,121.403 252.251,120.133 252.158 C 119.869 252.138,117.727 250.923,115.373 249.458 L 111.092 246.795 110.809 247.539 C 109.846 250.074,112.214 254.158,114.204 253.394 C 114.458 253.297,114.573 253.347,114.472 253.512 C 114.191 253.967,116.416 253.852,117.352 253.364 C 118.799 252.609,119.752 253.533,118.386 254.366 C 115.546 256.099,111.069 254.574,109.541 251.354 C 107.884 247.863,111.189 242.690,115.078 242.690 C 115.630 242.690,116.082 242.558,116.082 242.398 C 116.082 241.918,113.976 242.078,112.707 242.655 M274.013 243.590 C 272.963 244.010,267.544 247.087,267.544 247.263 C 267.544 247.628,270.637 252.923,270.851 252.924 C 270.981 252.924,270.993 252.772,270.879 252.586 C 270.752 252.382,270.798 252.328,270.995 252.450 C 271.345 252.666,276.303 250.022,277.450 249.007 C 280.504 246.305,277.816 242.068,274.013 243.590 M277.215 244.422 C 278.349 245.555,278.348 246.739,277.213 248.032 C 276.447 248.905,270.869 252.286,270.649 252.011 C 270.307 251.584,268.089 247.314,268.171 247.242 C 268.452 246.999,273.327 244.319,274.107 243.979 C 275.487 243.378,276.285 243.492,277.215 244.422 M113.465 244.501 C 111.547 245.495,111.623 245.616,115.819 248.231 C 120.048 250.867,120.164 250.875,120.170 248.538 C 120.179 245.174,116.472 242.942,113.465 244.501 M117.793 245.153 C 119.356 245.961,120.694 249.332,119.499 249.451 C 118.754 249.526,112.884 245.505,113.194 245.132 C 114.015 244.142,115.854 244.151,117.793 245.153 M127.875 249.035 C 127.875 249.301,128.074 249.406,128.411 249.318 C 128.706 249.241,128.947 249.311,128.947 249.474 C 128.947 249.637,129.174 249.683,129.450 249.577 C 129.727 249.471,129.862 249.476,129.750 249.587 C 129.639 249.699,130.130 250.159,130.842 250.611 C 133.078 252.029,133.960 254.952,132.910 257.466 C 132.357 258.788,132.584 258.840,127.220 256.154 C 122.082 253.581,122.237 253.583,122.226 256.082 C 122.219 257.840,124.381 260.234,125.976 260.234 C 126.663 260.234,126.287 259.663,125.289 259.189 C 123.743 258.456,122.807 257.187,122.807 255.826 C 122.807 254.342,122.671 254.314,127.778 256.871 C 132.892 259.433,132.580 259.371,133.303 257.954 C 134.543 255.524,134.334 253.166,132.716 251.323 C 131.195 249.591,127.875 248.022,127.875 249.035 M125.000 251.123 C 124.084 251.683,123.226 252.570,123.423 252.752 C 123.984 253.270,131.387 256.698,131.626 256.550 C 132.212 256.188,131.748 253.288,130.970 252.455 C 129.311 250.677,126.687 250.092,125.000 251.123 M128.956 251.535 C 130.825 252.479,132.644 255.848,131.285 255.848 C 130.658 255.848,124.240 252.252,124.467 252.028 C 125.693 250.820,127.212 250.654,128.956 251.535 M133.917 258.680 C 131.620 264.112,131.520 264.438,132.029 264.811 C 133.283 265.728,133.708 265.368,135.062 262.241 C 136.971 257.831,138.519 256.432,140.788 257.066 C 142.176 257.453,142.573 257.361,142.936 256.565 C 143.423 255.495,143.374 255.355,142.398 255.015 C 141.668 254.760,141.520 254.785,141.520 255.163 C 141.520 255.438,141.686 255.554,141.940 255.457 C 142.461 255.257,142.696 255.830,142.360 256.483 C 142.149 256.894,141.938 256.924,141.027 256.673 C 138.397 255.947,136.402 257.574,134.520 261.983 C 133.227 265.009,133.173 265.080,132.480 264.641 C 131.986 264.328,132.186 263.742,134.961 257.381 C 135.961 255.088,136.682 253.152,136.562 253.078 C 136.442 253.004,135.252 255.525,133.917 258.680 M137.021 253.383 C 136.890 253.723,136.959 253.819,137.253 253.706 C 137.580 253.581,137.643 253.772,137.542 254.585 C 137.435 255.447,137.493 255.593,137.882 255.443 C 138.141 255.344,138.999 255.263,139.790 255.263 C 140.595 255.263,141.228 255.129,141.228 254.958 C 141.228 254.767,140.844 254.724,140.205 254.844 C 139.548 254.967,139.181 254.923,139.181 254.720 C 139.181 254.546,138.997 254.475,138.772 254.561 C 138.514 254.660,138.379 254.538,138.406 254.231 C 138.474 253.486,137.265 252.746,137.021 253.383 M150.930 262.355 C 148.490 271.276,148.499 271.206,149.761 271.458 C 150.916 271.689,150.908 271.702,151.902 267.951 C 152.345 266.280,152.855 264.914,153.035 264.915 C 153.215 264.917,154.875 265.369,156.724 265.920 C 161.548 267.357,161.863 267.798,160.805 271.616 C 160.086 274.209,160.723 275.524,162.242 274.585 C 163.267 273.952,164.073 268.028,163.296 266.841 C 162.871 266.194,162.890 266.143,163.661 265.822 C 166.092 264.813,166.828 260.551,164.904 258.627 C 163.632 257.355,160.819 256.168,160.819 256.904 C 160.819 257.191,160.981 257.310,161.238 257.211 C 161.469 257.123,161.700 257.148,161.750 257.267 C 161.801 257.387,162.368 257.752,163.012 258.080 C 166.257 259.735,166.307 263.810,163.105 265.643 L 162.083 266.228 162.636 267.105 C 163.898 269.106,162.167 275.520,160.748 274.101 C 160.656 274.009,160.831 273.055,161.138 271.982 C 162.404 267.555,162.010 267.036,156.100 265.351 C 151.921 264.160,152.342 263.936,151.289 267.909 C 150.538 270.743,150.390 271.053,149.789 271.053 C 148.912 271.053,148.833 271.514,151.170 263.032 C 152.295 258.946,153.216 255.527,153.216 255.433 C 153.216 255.340,153.414 255.263,153.655 255.263 C 153.896 255.263,154.094 255.132,154.094 254.971 C 154.094 254.810,153.854 254.678,153.561 254.678 C 153.113 254.678,152.696 255.894,150.930 262.355 M154.386 255.126 C 154.386 255.599,154.843 255.707,155.098 255.294 C 155.187 255.150,155.063 254.957,154.823 254.864 C 154.557 254.763,154.386 254.865,154.386 255.126 M155.437 255.444 C 155.290 255.826,155.398 255.878,156.015 255.723 C 156.564 255.585,156.714 255.629,156.558 255.882 C 156.406 256.127,156.527 256.184,156.958 256.071 C 157.297 255.983,157.630 256.061,157.698 256.244 C 157.790 256.493,157.916 256.491,158.188 256.235 C 158.474 255.966,158.275 255.816,157.274 255.547 C 156.570 255.358,155.909 255.152,155.805 255.089 C 155.702 255.026,155.536 255.185,155.437 255.444 M158.645 256.342 C 158.508 256.699,158.627 256.752,159.232 256.600 C 159.724 256.476,159.925 256.516,159.803 256.713 C 159.699 256.881,159.820 257.018,160.070 257.018 C 160.828 257.018,160.583 256.510,159.672 256.192 C 158.983 255.952,158.783 255.981,158.645 256.342 M251.871 256.548 C 246.188 259.195,248.850 264.882,255.163 263.578 C 259.267 262.730,260.617 264.605,257.057 266.210 C 255.913 266.726,255.689 267.251,256.613 267.251 C 256.871 267.251,256.966 267.112,256.843 266.914 C 256.714 266.705,256.763 266.656,256.972 266.785 C 257.428 267.067,258.933 266.142,259.382 265.304 C 260.319 263.552,258.664 262.569,255.698 263.115 C 251.284 263.929,249.708 263.205,249.708 260.365 C 249.708 259.493,249.922 259.086,250.838 258.226 C 252.431 256.730,252.742 256.518,253.150 256.654 C 253.347 256.720,253.509 256.566,253.509 256.311 C 253.509 255.741,253.649 255.720,251.871 256.548 M253.801 256.140 C 253.801 256.301,254.163 256.431,254.605 256.428 C 255.232 256.425,255.313 256.361,254.971 256.140 C 254.399 255.771,253.801 255.771,253.801 256.140 M255.994 256.140 C 255.895 256.301,256.098 256.433,256.445 256.433 C 257.166 256.433,259.064 258.197,259.064 258.867 C 259.064 259.696,258.057 259.536,257.129 258.561 C 255.406 256.749,251.170 258.111,251.170 260.477 C 251.170 261.323,251.883 262.249,252.252 261.881 C 252.357 261.776,252.203 261.514,251.909 261.300 C 250.695 260.412,252.366 258.585,254.879 258.054 C 255.834 257.851,256.449 258.237,257.173 259.493 C 257.600 260.233,259.357 259.858,259.357 259.027 C 259.357 257.311,256.687 255.019,255.994 256.140 M154.239 257.113 C 154.177 257.302,153.848 258.509,153.506 259.795 C 153.164 261.082,152.813 262.383,152.726 262.686 C 152.589 263.159,152.679 263.209,153.355 263.040 C 153.928 262.896,154.084 262.937,153.926 263.192 C 153.774 263.438,153.898 263.493,154.340 263.378 C 154.687 263.287,154.971 263.347,154.971 263.512 C 154.971 263.676,155.234 263.742,155.556 263.658 C 155.878 263.574,156.067 263.624,155.977 263.770 C 155.887 263.916,156.011 264.035,156.252 264.035 C 157.254 264.035,156.945 263.454,155.784 263.154 C 153.667 262.607,153.509 262.543,153.509 262.236 C 153.509 261.961,154.711 257.561,154.837 257.373 C 154.905 257.273,160.643 258.883,161.731 259.307 C 164.868 260.530,163.545 264.869,160.187 264.371 C 159.920 264.332,159.616 264.437,159.512 264.606 C 159.391 264.800,159.756 264.912,160.509 264.912 C 161.162 264.912,161.696 264.785,161.696 264.629 C 161.696 264.473,161.875 264.415,162.095 264.499 C 162.316 264.584,162.838 264.244,163.265 263.736 C 164.945 261.739,163.785 259.303,160.787 258.532 C 160.081 258.350,158.344 257.880,156.927 257.486 C 155.088 256.976,154.318 256.869,154.239 257.113 M127.193 260.112 L 126.462 260.518 127.217 260.522 C 127.696 260.525,127.973 260.366,127.973 260.088 C 127.973 259.846,127.962 259.662,127.948 259.678 C 127.935 259.694,127.595 259.889,127.193 260.112 M239.901 260.409 C 237.137 261.840,236.373 264.533,238.147 266.592 C 238.835 267.391,238.869 267.398,242.505 267.398 C 244.848 267.398,246.289 267.517,246.501 267.729 C 247.128 268.356,246.682 269.403,245.511 270.059 C 244.206 270.790,244.561 271.310,245.895 270.620 C 249.400 268.807,247.704 266.780,242.981 267.137 C 239.840 267.374,238.848 267.057,238.153 265.592 C 237.355 263.911,238.119 262.138,240.053 261.181 C 240.739 260.842,241.097 260.495,240.972 260.293 C 240.824 260.053,240.527 260.085,239.901 260.409 M244.737 260.234 C 244.737 260.395,244.921 260.526,245.145 260.526 C 246.249 260.526,247.809 263.219,246.906 263.565 C 246.195 263.838,245.906 263.779,245.906 263.359 C 245.906 261.248,241.073 261.172,239.610 263.261 C 238.972 264.172,239.811 266.424,240.524 265.713 C 240.646 265.591,240.514 265.321,240.229 265.112 C 239.324 264.451,239.751 263.385,241.217 262.646 C 243.212 261.640,244.326 261.754,245.086 263.042 C 245.654 264.004,245.796 264.082,246.721 263.932 C 248.089 263.710,248.125 263.634,247.506 262.262 C 246.773 260.635,244.737 259.144,244.737 260.234 M258.772 261.250 C 258.772 261.495,258.946 261.696,259.160 261.696 C 260.821 261.696,261.576 265.088,260.234 266.525 C 258.709 268.159,255.573 269.206,253.729 268.696 C 252.178 268.268,249.976 265.497,251.187 265.497 C 251.357 265.497,251.415 265.365,251.316 265.205 C 250.916 264.558,251.504 264.983,252.732 266.228 C 253.779 267.290,254.218 267.539,255.012 267.520 L 255.994 267.496 255.117 267.095 C 254.635 266.874,254.071 266.687,253.864 266.680 C 253.658 266.673,253.217 266.206,252.885 265.643 C 252.231 264.535,251.397 264.321,250.443 265.019 C 249.918 265.403,249.927 265.467,250.691 266.772 C 253.629 271.784,263.229 268.093,261.018 262.801 C 260.525 261.621,258.772 260.410,258.772 261.250 M255.263 261.404 C 255.263 261.564,255.534 261.696,255.865 261.696 C 256.196 261.696,256.386 261.564,256.287 261.404 C 256.187 261.243,255.916 261.111,255.684 261.111 C 255.453 261.111,255.263 261.243,255.263 261.404 M207.181 261.903 C 206.686 263.193,207.299 265.205,208.187 265.205 C 209.158 265.205,209.615 262.897,208.890 261.659 C 208.677 261.296,207.341 261.487,207.181 261.903 M253.801 261.696 C 253.801 261.857,254.097 261.986,254.459 261.984 C 254.991 261.980,255.033 261.925,254.678 261.696 C 254.111 261.330,253.801 261.330,253.801 261.696 M203.509 264.352 L 203.509 266.950 202.482 266.460 C 201.641 266.059,201.391 266.039,201.094 266.352 C 200.799 266.661,200.861 266.693,201.426 266.522 C 201.807 266.406,202.054 266.424,201.973 266.562 C 201.891 266.700,202.270 267.103,202.813 267.457 L 203.801 268.102 203.801 265.191 C 203.801 262.282,203.801 262.281,204.532 262.281 L 205.263 262.281 205.263 270.468 C 205.263 278.460,205.249 278.655,204.678 278.655 C 204.199 278.655,204.094 278.460,204.094 277.577 L 204.094 276.499 203.289 277.249 C 198.575 281.646,191.802 276.807,193.601 270.328 C 194.002 268.882,196.526 266.337,197.302 266.596 C 197.499 266.662,197.661 266.505,197.661 266.249 C 197.661 264.706,193.938 267.785,193.323 269.836 C 191.380 276.321,197.460 281.682,202.820 278.211 C 203.382 277.847,203.463 277.864,203.597 278.376 C 203.754 278.977,205.356 279.214,205.684 278.684 C 205.774 278.539,205.761 274.670,205.655 270.087 L 205.463 261.754 204.486 261.754 L 203.509 261.754 203.509 264.352 M208.716 263.380 C 208.793 264.442,208.724 264.620,208.240 264.620 C 207.631 264.620,207.176 263.263,207.501 262.416 C 207.858 261.486,208.622 262.092,208.716 263.380 M227.629 263.411 C 221.869 266.028,223.382 275.570,229.621 275.967 C 232.829 276.171,235.244 275.105,236.467 272.945 C 237.326 271.429,237.367 269.883,236.550 269.883 C 236.228 269.883,235.965 270.015,235.965 270.175 C 235.965 270.336,236.162 270.468,236.404 270.468 C 237.508 270.468,236.144 273.391,234.533 274.477 C 229.235 278.047,223.167 273.602,224.886 267.411 C 225.212 266.237,227.508 263.570,227.876 263.938 C 227.983 264.045,228.070 263.983,228.070 263.801 C 228.070 263.618,228.268 263.544,228.509 263.637 C 228.787 263.744,228.947 263.633,228.947 263.335 C 228.947 262.769,229.056 262.762,227.629 263.411 M229.240 263.158 C 229.240 263.319,229.602 263.448,230.044 263.446 C 230.670 263.442,230.751 263.379,230.409 263.158 C 229.837 262.788,229.240 262.788,229.240 263.158 M231.748 263.121 C 231.662 263.261,232.050 263.450,232.611 263.541 C 234.591 263.863,236.366 265.835,236.604 267.981 L 236.696 268.806 231.579 269.877 C 226.588 270.921,226.464 270.965,226.536 271.658 C 226.618 272.448,228.399 274.269,229.089 274.269 C 229.736 274.269,229.630 273.755,228.938 273.535 C 228.269 273.323,226.901 271.948,226.901 271.488 C 226.901 271.323,229.144 270.738,231.887 270.189 C 237.391 269.088,237.261 269.156,236.991 267.559 C 236.542 264.904,232.671 261.627,231.748 263.121 M158.187 264.190 C 158.187 264.663,158.644 264.771,158.899 264.358 C 158.988 264.214,158.864 264.021,158.624 263.929 C 158.359 263.827,158.187 263.930,158.187 264.190 M168.275 264.290 C 161.468 268.517,165.939 278.694,173.687 276.608 C 175.780 276.044,178.615 272.807,177.016 272.807 C 176.744 272.807,176.609 272.972,176.695 273.197 C 177.515 275.333,172.028 277.226,168.864 275.899 C 164.141 273.920,164.438 265.541,169.268 264.480 C 169.767 264.371,170.175 264.160,170.175 264.012 C 170.175 263.568,169.210 263.709,168.275 264.290 M172.515 264.050 C 172.165 264.308,172.239 264.347,172.880 264.245 C 173.322 264.174,173.684 264.215,173.684 264.336 C 173.684 264.457,173.987 264.633,174.358 264.725 C 176.603 265.289,178.886 270.489,177.447 271.761 C 177.388 271.813,174.971 271.440,172.076 270.930 L 166.813 270.005 166.720 270.831 C 166.522 272.603,169.027 275.534,169.951 274.611 C 170.182 274.379,170.076 274.216,169.565 274.021 C 168.425 273.585,166.825 271.089,167.349 270.565 C 167.398 270.516,169.716 270.878,172.502 271.368 C 178.261 272.381,178.128 272.414,178.289 269.960 C 178.515 266.541,174.588 262.522,172.515 264.050 M229.214 264.899 C 226.775 265.639,224.626 269.610,226.681 269.581 C 227.299 269.573,227.307 269.548,226.814 269.174 C 224.896 267.719,229.152 264.355,231.877 265.172 C 233.669 265.709,234.882 267.544,233.445 267.544 C 233.204 267.544,233.088 267.675,233.187 267.836 C 233.287 267.997,233.631 268.129,233.953 268.129 C 234.274 268.129,234.457 267.999,234.359 267.840 C 234.256 267.674,234.374 267.625,234.634 267.725 C 235.239 267.957,235.206 267.658,234.498 266.513 C 233.509 264.912,231.349 264.252,229.214 264.899 M216.667 265.205 C 216.667 265.365,217.135 265.497,217.707 265.497 C 218.327 265.497,218.675 265.379,218.567 265.205 C 218.468 265.044,218.000 264.912,217.527 264.912 C 217.054 264.912,216.667 265.044,216.667 265.205 M246.498 265.251 C 246.501 265.467,246.929 265.841,247.448 266.082 C 251.400 267.918,247.208 273.372,242.345 272.720 C 239.915 272.394,237.438 269.296,239.319 268.936 C 239.833 268.838,240.058 268.923,240.058 269.215 C 240.058 269.814,241.667 271.345,242.296 271.345 C 242.684 271.345,242.540 271.112,241.751 270.461 C 241.161 269.975,240.603 269.338,240.510 269.046 C 240.393 268.677,240.028 268.504,239.310 268.477 C 237.934 268.425,237.733 269.047,238.599 270.679 C 241.256 275.687,251.426 272.118,248.934 267.053 C 248.366 265.899,246.486 264.508,246.498 265.251 M214.474 265.542 C 214.152 265.718,213.724 266.068,213.523 266.320 C 213.200 266.725,213.158 266.727,213.158 266.331 C 213.158 265.847,211.261 265.602,210.984 266.051 C 210.850 266.267,211.742 274.958,212.149 277.412 C 212.291 278.267,212.407 278.363,213.300 278.363 C 214.636 278.363,214.619 278.452,214.103 274.035 C 213.476 268.666,214.260 267.203,217.763 267.203 C 219.847 267.203,220.171 267.721,220.652 271.827 C 221.287 277.248,221.320 277.348,222.466 277.294 C 222.998 277.269,223.496 277.186,223.573 277.110 C 223.786 276.897,222.625 268.089,222.263 267.178 C 221.794 265.994,219.298 264.600,219.298 265.521 C 219.298 265.696,219.458 265.785,219.652 265.720 C 220.046 265.589,221.539 266.816,221.974 267.628 C 222.128 267.915,222.487 270.119,222.771 272.525 L 223.287 276.901 222.609 276.901 C 222.235 276.901,221.925 276.868,221.919 276.827 C 221.914 276.787,221.667 274.866,221.371 272.558 C 220.714 267.432,220.314 266.799,217.756 266.833 C 213.621 266.887,213.108 268.153,213.933 276.269 C 214.118 278.096,214.111 278.121,213.427 278.023 C 212.758 277.928,212.715 277.765,212.237 273.538 C 211.964 271.126,211.660 268.527,211.562 267.763 C 211.390 266.425,211.410 266.374,212.124 266.374 C 212.681 266.374,212.865 266.526,212.865 266.985 C 212.865 267.573,212.899 267.567,213.765 266.839 C 214.260 266.422,214.983 266.002,215.371 265.904 C 215.760 265.807,216.005 265.610,215.916 265.466 C 215.704 265.122,215.193 265.149,214.474 265.542 M242.398 265.497 C 242.066 265.712,242.194 265.782,242.927 265.785 C 243.498 265.788,243.820 265.670,243.713 265.497 C 243.486 265.130,242.966 265.130,242.398 265.497 M168.992 266.156 C 167.973 266.843,166.675 268.713,167.217 268.713 C 167.389 268.713,167.736 268.313,167.989 267.823 C 169.677 264.560,175.731 265.695,175.731 269.275 C 175.731 269.660,175.589 269.810,175.322 269.708 C 175.097 269.621,174.826 269.691,174.720 269.863 C 174.599 270.059,174.861 270.175,175.421 270.175 C 176.498 270.175,176.561 269.720,175.734 267.899 C 174.721 265.667,171.105 264.732,168.992 266.156 M183.041 265.789 C 183.041 265.950,183.312 266.082,183.643 266.082 C 183.974 266.082,184.164 265.950,184.064 265.789 C 183.965 265.629,183.694 265.497,183.462 265.497 C 183.231 265.497,183.041 265.629,183.041 265.789 M185.526 265.789 C 185.427 265.950,185.617 266.082,185.948 266.082 C 186.279 266.082,186.550 265.950,186.550 265.789 C 186.550 265.629,186.360 265.497,186.128 265.497 C 185.897 265.497,185.626 265.629,185.526 265.789 M187.022 265.952 C 186.907 266.253,186.973 266.379,187.206 266.302 C 187.406 266.235,188.031 266.618,188.595 267.152 C 189.159 267.686,189.704 268.125,189.807 268.126 C 190.091 268.130,190.272 266.068,190.002 265.901 C 189.872 265.821,189.766 266.031,189.766 266.369 C 189.766 266.973,189.743 266.970,188.485 266.233 C 187.365 265.577,187.180 265.541,187.022 265.952 M181.279 266.288 C 177.908 268.611,177.641 274.913,180.810 277.330 C 182.626 278.715,185.643 278.964,188.085 277.932 C 188.443 277.780,188.596 277.849,188.596 278.162 C 188.596 278.684,190.272 279.144,190.682 278.734 C 190.832 278.584,191.144 276.301,191.375 273.660 C 191.606 271.020,191.870 268.235,191.961 267.471 C 192.082 266.449,192.026 266.082,191.750 266.082 C 191.507 266.082,191.356 266.550,191.323 267.411 C 191.250 269.310,190.660 276.286,190.478 277.412 C 190.357 278.162,190.183 278.363,189.657 278.363 C 189.080 278.363,189.008 278.243,189.121 277.470 L 189.252 276.578 188.189 277.299 C 185.331 279.239,181.063 278.146,179.495 275.073 C 178.101 272.341,179.316 267.907,181.792 266.691 C 182.311 266.437,182.738 266.129,182.742 266.009 C 182.753 265.631,182.032 265.769,181.279 266.288 M198.538 266.082 C 198.215 266.291,198.407 266.365,199.269 266.365 C 200.131 266.365,200.323 266.291,200.000 266.082 C 199.759 265.926,199.430 265.798,199.269 265.798 C 199.108 265.798,198.779 265.926,198.538 266.082 M209.020 265.931 C 208.942 266.009,208.975 266.890,209.092 267.889 C 209.748 273.449,209.752 278.363,209.102 278.363 C 208.760 278.363,208.468 278.330,208.455 278.289 C 208.305 277.852,207.699 266.755,207.809 266.468 C 207.891 266.256,207.812 266.082,207.634 266.082 C 207.254 266.082,207.259 266.528,207.705 273.538 L 208.041 278.801 209.064 278.701 C 209.627 278.646,210.110 278.580,210.137 278.554 C 210.228 278.468,209.368 265.996,209.264 265.892 C 209.208 265.836,209.098 265.853,209.020 265.931 M182.442 267.910 C 179.519 269.880,179.524 274.791,182.452 276.356 C 185.797 278.145,189.457 275.821,189.469 271.900 C 189.480 268.180,185.443 265.888,182.442 267.910 M187.332 268.281 C 190.141 270.122,189.616 274.544,186.409 276.052 C 181.890 278.176,178.569 270.784,182.836 268.098 C 183.927 267.412,186.142 267.502,187.332 268.281 M197.807 267.853 C 192.681 269.502,194.141 277.794,199.492 277.419 C 202.394 277.216,203.855 275.563,203.840 272.500 C 203.823 268.994,201.006 266.824,197.807 267.853 M231.871 268.129 C 231.871 268.289,232.142 268.421,232.473 268.421 C 232.805 268.421,232.994 268.289,232.895 268.129 C 232.795 267.968,232.524 267.836,232.293 267.836 C 232.061 267.836,231.871 267.968,231.871 268.129 M168.011 268.600 C 167.911 268.859,168.057 269.006,168.413 269.006 C 169.185 269.006,169.416 268.520,168.729 268.340 C 168.405 268.256,168.100 268.366,168.011 268.600 M201.699 268.721 C 204.097 270.183,204.095 274.612,201.695 276.122 C 198.482 278.144,195.323 276.313,195.322 272.427 C 195.321 268.850,198.695 266.889,201.699 268.721 M230.409 268.421 C 230.409 268.582,230.680 268.713,231.011 268.713 C 231.343 268.713,231.532 268.582,231.433 268.421 C 231.333 268.260,231.062 268.129,230.831 268.129 C 230.599 268.129,230.409 268.260,230.409 268.421 M229.094 268.713 C 228.994 268.874,229.192 269.006,229.532 269.006 C 229.873 269.006,230.070 268.874,229.971 268.713 C 229.871 268.553,229.674 268.421,229.532 268.421 C 229.390 268.421,229.193 268.553,229.094 268.713 M169.737 269.006 C 169.637 269.167,169.827 269.298,170.158 269.298 C 170.489 269.298,170.760 269.167,170.760 269.006 C 170.760 268.845,170.571 268.713,170.339 268.713 C 170.107 268.713,169.836 268.845,169.737 269.006 M227.485 269.006 C 227.485 269.167,227.756 269.298,228.087 269.298 C 228.419 269.298,228.608 269.167,228.509 269.006 C 228.409 268.845,228.138 268.713,227.907 268.713 C 227.675 268.713,227.485 268.845,227.485 269.006 M171.199 269.298 C 171.099 269.459,171.289 269.591,171.620 269.591 C 171.951 269.591,172.222 269.459,172.222 269.298 C 172.222 269.137,172.033 269.006,171.801 269.006 C 171.569 269.006,171.298 269.137,171.199 269.298 M234.470 271.238 C 233.986 272.202,233.435 272.801,232.675 273.186 C 231.619 273.721,231.229 274.269,231.905 274.269 C 233.406 274.269,236.264 270.943,235.457 270.135 C 235.266 269.945,234.930 270.321,234.470 271.238 M243.567 270.906 C 243.263 271.273,243.304 271.345,243.815 271.345 C 244.238 271.345,244.374 271.210,244.258 270.906 C 244.165 270.665,244.054 270.468,244.010 270.468 C 243.967 270.468,243.767 270.665,243.567 270.906 M174.873 273.063 C 174.458 273.840,172.074 274.901,171.225 274.688 C 170.844 274.592,170.444 274.656,170.336 274.830 C 170.118 275.184,172.626 275.246,173.416 274.906 C 174.543 274.422,176.440 272.515,175.794 272.515 C 175.449 272.515,175.035 272.761,174.873 273.063 " stroke="none" fill="#260506" fill-rule="evenodd"></path><path id="path3" d="M219.704 184.942 C 219.705 187.032,219.751 187.849,219.808 186.757 C 219.864 185.665,219.864 183.954,219.807 182.956 C 219.750 181.957,219.704 182.851,219.704 184.942 M93.275 217.982 C 93.820 218.545,94.333 219.006,94.413 219.006 C 94.493 219.006,94.113 218.545,93.567 217.982 C 93.022 217.420,92.510 216.959,92.429 216.959 C 92.349 216.959,92.729 217.420,93.275 217.982 M315.184 221.985 C 319.010 225.882,319.363 226.328,319.000 226.809 C 318.616 227.317,318.623 227.318,319.162 226.823 C 319.710 226.320,319.611 226.194,315.346 221.998 L 310.967 217.690 315.184 221.985 M310.457 220.382 C 310.820 220.452,311.347 220.450,311.626 220.376 C 311.906 220.303,311.608 220.246,310.965 220.249 C 310.322 220.252,310.093 220.312,310.457 220.382 M306.214 226.170 C 306.217 226.813,306.277 227.042,306.347 226.678 C 306.417 226.314,306.414 225.788,306.341 225.508 C 306.268 225.229,306.211 225.526,306.214 226.170 M80.994 228.746 C 80.994 228.797,81.422 229.224,81.944 229.697 L 82.895 230.556 82.036 229.605 C 81.235 228.719,80.994 228.521,80.994 228.746 M299.963 231.213 C 299.599 231.677,299.609 231.688,300.073 231.324 C 300.507 230.984,300.663 230.984,301.096 231.324 C 301.560 231.688,301.571 231.677,301.207 231.213 C 300.986 230.932,300.706 230.702,300.585 230.702 C 300.463 230.702,300.183 230.932,299.963 231.213 M108.553 239.968 C 108.834 240.041,109.295 240.041,109.576 239.968 C 109.857 239.894,109.627 239.834,109.064 239.834 C 108.501 239.834,108.271 239.894,108.553 239.968 M109.138 249.269 C 109.141 249.912,109.201 250.141,109.271 249.777 C 109.341 249.414,109.338 248.887,109.265 248.608 C 109.192 248.328,109.135 248.626,109.138 249.269 M288.377 251.079 C 288.659 251.152,289.119 251.152,289.401 251.079 C 289.682 251.005,289.452 250.945,288.889 250.945 C 288.326 250.945,288.096 251.005,288.377 251.079 M114.985 254.003 C 115.267 254.076,115.727 254.076,116.009 254.003 C 116.290 253.929,116.060 253.869,115.497 253.869 C 114.934 253.869,114.704 253.929,114.985 254.003 M120.828 255.848 C 120.828 256.411,120.888 256.641,120.962 256.360 C 121.035 256.078,121.035 255.618,120.962 255.336 C 120.888 255.055,120.828 255.285,120.828 255.848 M243.056 260.435 C 243.337 260.509,243.798 260.509,244.079 260.435 C 244.360 260.362,244.130 260.302,243.567 260.302 C 243.004 260.302,242.774 260.362,243.056 260.435 M165.273 261.696 C 165.273 262.259,165.333 262.489,165.406 262.208 C 165.480 261.926,165.480 261.466,165.406 261.184 C 165.333 260.903,165.273 261.133,165.273 261.696 M171.418 263.652 C 171.700 263.725,172.160 263.725,172.442 263.652 C 172.723 263.578,172.493 263.518,171.930 263.518 C 171.367 263.518,171.137 263.578,171.418 263.652 M184.284 267.161 C 184.565 267.234,185.026 267.234,185.307 267.161 C 185.588 267.087,185.358 267.027,184.795 267.027 C 184.232 267.027,184.002 267.087,184.284 267.161 M225.771 268.933 C 225.740 269.660,225.851 269.882,226.243 269.879 C 226.571 269.876,226.634 269.797,226.418 269.659 C 226.234 269.541,226.021 269.115,225.946 268.713 C 225.831 268.095,225.805 268.128,225.771 268.933 M207.963 270.760 C 207.963 271.323,208.023 271.553,208.096 271.272 C 208.170 270.990,208.170 270.530,208.096 270.249 C 208.023 269.967,207.963 270.197,207.963 270.760 M209.132 271.053 C 209.132 271.615,209.192 271.846,209.266 271.564 C 209.339 271.283,209.339 270.822,209.266 270.541 C 209.192 270.260,209.132 270.490,209.132 271.053 M189.553 271.930 C 189.553 272.654,189.610 272.950,189.680 272.588 C 189.750 272.226,189.750 271.634,189.680 271.272 C 189.610 270.910,189.553 271.206,189.553 271.930 M193.354 272.515 C 193.354 273.238,193.412 273.534,193.481 273.173 C 193.551 272.811,193.551 272.219,193.481 271.857 C 193.412 271.495,193.354 271.791,193.354 272.515 M242.471 271.547 C 242.752 271.620,243.213 271.620,243.494 271.547 C 243.776 271.473,243.545 271.413,242.982 271.413 C 242.420 271.413,242.189 271.473,242.471 271.547 M229.755 275.645 C 230.119 275.715,230.645 275.713,230.924 275.639 C 231.204 275.566,230.906 275.509,230.263 275.512 C 229.620 275.516,229.391 275.575,229.755 275.645 M184.433 277.107 C 184.797 277.177,185.323 277.175,185.603 277.101 C 185.882 277.028,185.585 276.971,184.942 276.974 C 184.298 276.978,184.070 277.037,184.433 277.107 M198.611 277.687 C 198.893 277.760,199.353 277.760,199.635 277.687 C 199.916 277.613,199.686 277.553,199.123 277.553 C 198.560 277.553,198.330 277.613,198.611 277.687 " stroke="none" fill="#721a23" fill-rule="evenodd"></path><path id="path4" d="M86.842 214.643 C 86.842 215.066,87.413 215.242,87.900 214.969 C 88.298 214.746,88.250 214.678,87.610 214.555 C 87.187 214.475,86.842 214.514,86.842 214.643 M309.515 219.863 C 309.222 220.337,309.859 220.481,310.237 220.026 C 310.530 219.672,310.512 219.591,310.141 219.591 C 309.889 219.591,309.608 219.713,309.515 219.863 M317.291 226.827 C 317.327 227.552,317.344 227.564,317.461 226.950 C 317.588 226.281,317.604 226.278,318.225 226.803 L 318.860 227.339 318.303 226.681 C 317.561 225.806,317.243 225.852,317.291 226.827 M96.491 228.979 C 96.491 229.377,97.063 229.576,97.663 229.385 C 98.533 229.109,98.366 228.752,97.368 228.752 C 96.886 228.752,96.491 228.854,96.491 228.979 M86.352 230.493 C 86.080 230.934,86.387 230.956,87.135 230.549 L 87.865 230.152 87.185 230.198 C 86.811 230.224,86.436 230.356,86.352 230.493 M310.892 232.658 C 311.173 232.731,311.634 232.731,311.915 232.658 C 312.197 232.584,311.966 232.524,311.404 232.524 C 310.841 232.524,310.610 232.584,310.892 232.658 M307.751 237.178 C 308.000 237.832,307.400 238.149,306.785 237.687 C 306.340 237.353,306.342 237.373,306.798 237.871 C 307.281 238.397,307.338 238.401,307.809 237.930 C 308.212 237.528,308.237 237.360,307.938 237.063 C 307.640 236.768,307.604 236.790,307.751 237.178 M96.373 239.981 C 96.019 240.335,96.221 240.498,97.051 240.527 C 97.577 240.545,97.853 240.430,97.774 240.223 C 97.636 239.864,96.660 239.695,96.373 239.981 M274.561 241.472 C 274.561 241.954,274.954 242.093,275.362 241.755 C 275.683 241.489,275.908 241.490,276.340 241.760 C 276.800 242.047,276.901 242.031,276.901 241.669 C 276.901 241.349,276.579 241.228,275.731 241.228 C 275.088 241.228,274.561 241.338,274.561 241.472 M116.082 242.366 C 116.082 242.510,116.279 242.703,116.520 242.796 C 116.788 242.898,116.959 242.796,116.959 242.535 C 116.959 242.299,116.762 242.105,116.520 242.105 C 116.279 242.105,116.082 242.223,116.082 242.366 M126.535 248.764 C 126.254 248.824,126.023 248.995,126.023 249.144 C 126.023 249.490,127.690 249.501,127.903 249.156 C 128.094 248.848,127.259 248.609,126.535 248.764 M288.304 249.624 C 288.304 249.831,288.545 250.000,288.840 250.000 C 289.135 250.000,289.376 249.812,289.376 249.583 C 289.376 249.354,289.135 249.185,288.840 249.207 C 288.545 249.229,288.304 249.417,288.304 249.624 M254.678 255.890 C 254.678 256.174,255.571 256.458,255.874 256.270 C 256.364 255.967,256.147 255.702,255.409 255.702 C 255.007 255.702,254.678 255.786,254.678 255.890 M126.198 260.120 C 126.026 260.568,126.182 260.595,127.031 260.262 C 127.579 260.048,127.577 260.034,126.977 259.877 C 126.592 259.776,126.294 259.869,126.198 260.120 M242.018 260.137 C 242.202 260.615,242.260 260.617,242.986 260.164 C 243.439 259.881,243.691 259.878,244.126 260.150 C 244.578 260.432,244.717 260.415,244.854 260.059 C 244.993 259.697,244.745 259.631,243.446 259.683 C 242.270 259.731,241.907 259.846,242.018 260.137 M256.299 261.091 C 256.207 261.241,256.290 261.461,256.484 261.581 C 256.678 261.701,256.888 261.645,256.952 261.455 C 257.100 261.009,257.972 261.013,258.421 261.462 C 258.694 261.735,258.772 261.702,258.772 261.316 C 258.772 260.767,256.620 260.571,256.299 261.091 M254.386 261.372 C 254.386 261.516,254.583 261.709,254.825 261.802 C 255.092 261.904,255.263 261.802,255.263 261.541 C 255.263 261.304,255.066 261.111,254.825 261.111 C 254.583 261.111,254.386 261.229,254.386 261.372 M252.339 261.936 C 252.339 262.405,253.560 262.284,253.720 261.799 C 253.785 261.599,253.529 261.481,253.085 261.507 C 252.675 261.530,252.340 261.723,252.339 261.936 M203.911 265.351 C 203.911 267.120,203.959 267.806,204.018 266.875 C 204.076 265.945,204.075 264.497,204.016 263.659 C 203.958 262.820,203.910 263.582,203.911 265.351 M230.638 263.227 C 231.132 263.464,231.395 263.459,231.647 263.207 C 231.907 262.947,231.748 262.870,230.980 262.885 C 230.032 262.904,230.011 262.925,230.638 263.227 M170.379 263.636 C 169.761 264.254,171.645 264.580,172.545 264.010 C 172.841 263.823,172.739 263.750,172.173 263.747 C 171.744 263.745,171.211 263.673,170.988 263.587 C 170.766 263.502,170.492 263.524,170.379 263.636 M158.909 264.342 C 158.631 264.792,159.012 265.082,159.387 264.706 C 159.597 264.496,159.602 264.333,159.402 264.210 C 159.239 264.108,159.017 264.168,158.909 264.342 M215.948 265.184 C 215.748 265.508,216.210 265.857,216.480 265.587 C 216.758 265.309,216.706 264.912,216.392 264.912 C 216.240 264.912,216.041 265.035,215.948 265.184 M218.421 265.023 C 218.421 265.469,219.250 265.753,219.401 265.358 C 219.519 265.052,219.392 264.912,218.997 264.912 C 218.680 264.912,218.421 264.962,218.421 265.023 M243.715 265.478 C 244.083 265.845,244.265 265.860,244.748 265.558 C 245.191 265.281,245.486 265.272,245.947 265.519 C 246.433 265.779,246.532 265.766,246.426 265.452 C 246.339 265.193,245.779 265.054,244.781 265.045 C 243.425 265.033,243.315 265.077,243.715 265.478 M240.644 265.716 C 240.643 266.211,241.536 266.162,242.241 265.629 C 242.778 265.223,242.746 265.200,241.730 265.273 C 241.098 265.318,240.644 265.504,240.644 265.716 M184.064 265.789 C 184.164 265.950,184.493 266.082,184.795 266.082 C 185.098 266.082,185.427 265.950,185.526 265.789 C 185.632 265.618,185.329 265.497,184.795 265.497 C 184.262 265.497,183.959 265.618,184.064 265.789 M190.156 266.212 C 190.156 266.444,190.233 266.626,190.327 266.616 C 190.895 266.555,191.201 266.728,191.319 267.178 C 191.438 267.634,191.456 267.636,191.487 267.199 C 191.520 266.708,190.799 265.789,190.379 265.789 C 190.256 265.789,190.156 265.980,190.156 266.212 M197.661 266.264 C 197.661 266.670,197.735 266.682,198.173 266.347 C 198.454 266.131,198.739 265.918,198.806 265.872 C 198.873 265.827,198.643 265.789,198.294 265.789 C 197.905 265.789,197.661 265.972,197.661 266.264 M200.160 266.202 C 200.471 266.429,200.827 266.552,200.952 266.474 C 201.344 266.232,200.871 265.789,200.219 265.789 C 199.611 265.789,199.609 265.799,200.160 266.202 M207.817 266.301 C 207.894 266.502,208.184 266.667,208.462 266.667 C 208.740 266.667,208.967 266.502,208.967 266.301 C 208.967 266.100,208.677 265.936,208.322 265.936 C 207.926 265.936,207.731 266.077,207.817 266.301 M169.143 268.728 C 168.865 269.178,169.246 269.468,169.621 269.092 C 169.831 268.882,169.836 268.719,169.636 268.595 C 169.473 268.494,169.251 268.554,169.143 268.728 M172.266 269.284 C 172.330 269.477,172.478 269.625,172.595 269.613 C 172.945 269.576,172.877 269.175,172.500 269.050 C 172.307 268.985,172.202 269.091,172.266 269.284 M173.807 269.755 C 174.059 270.007,174.397 270.131,174.559 270.031 C 175.106 269.693,174.859 269.298,174.102 269.298 C 173.420 269.298,173.393 269.341,173.807 269.755 M242.632 271.111 C 242.904 271.384,243.060 271.384,243.333 271.111 C 243.606 270.838,243.528 270.760,242.982 270.760 C 242.437 270.760,242.359 270.838,242.632 271.111 M176.218 272.710 C 175.909 273.019,175.990 273.316,176.429 273.485 C 176.713 273.594,176.790 273.472,176.687 273.078 C 176.524 272.452,176.497 272.431,176.218 272.710 M229.418 274.148 C 229.342 274.344,229.696 274.451,230.343 274.429 C 230.920 274.409,231.437 274.256,231.493 274.089 C 231.629 273.681,229.576 273.739,229.418 274.148 M184.576 278.272 C 184.857 278.345,185.318 278.345,185.599 278.272 C 185.881 278.198,185.651 278.138,185.088 278.138 C 184.525 278.138,184.295 278.198,184.576 278.272 " stroke="none" fill="#4e1115" fill-rule="evenodd"></path></g></svg>