<?xml version="1.0" encoding="utf-8"?>
<!-- Generator: Adobe Illustrator 23.0.3, SVG Export Plug-In . SVG Version: 6.00 Build 0)  -->
<svg version="1.1"
	 id="svg2" xmlns:cc="http://creativecommons.org/ns#" xmlns:dc="http://purl.org/dc/elements/1.1/" xmlns:rdf="http://www.w3.org/1999/02/22-rdf-syntax-ns#" xmlns:svg="http://www.w3.org/2000/svg"
	 xmlns="http://www.w3.org/2000/svg" xmlns:xlink="http://www.w3.org/1999/xlink" x="0px" y="0px" viewBox="0 0 1361.9 380"
	 style="enable-background:new 0 0 1361.9 380;" xml:space="preserve">
<style type="text/css">
	.st0{fill:#BB1A33;}
</style>
<g id="g10" transform="matrix(1.3333333,0,0,-1.3333333,0,380.02667)">
	<g id="g12" transform="scale(0.1)">
		<path id="path26" class="st0" d="M4942.3,1911.7c-0.3,0-1.5-0.1-1.7-1L4756.5,1588c-2.3-4.1-6.6-6.6-11.3-6.6l-150.3,0.1
			c-4.7,0-8.9,2.5-11.3,6.6c-2.4,4.1-2.4,9.1,0,13.2l289.4,508.8c2.3,4.1,6.6,6.7,11.3,6.7l58.1-0.1h0l58.1,0.1
			c4.7,0,9-2.5,11.3-6.7l289.4-508.8c2.3-4.1,2.3-9.1,0-13.2c-2.3-4.2-6.6-6.6-11.3-6.6l-150.3-0.1c-4.6,0-9,2.6-11.3,6.6
			l-184.1,322.6C4943.6,1911.6,4942.7,1911.7,4942.3,1911.7C4942.3,1911.7,4942.3,1911.7,4942.3,1911.7
			C4942.3,1911.7,4942.3,1911.7,4942.3,1911.7L4942.3,1911.7z M5549.5,2419.3l-1214.3,0.1h0c-14.7,0-26.7-12.2-26.7-27.2v-943.5
			c0-8.8,4.2-17.1,11.2-22.2l598.2-448.3c7.2-5.2,15.5-7.8,23.9-7.8l0-0.1c0,0,0,0,0,0l0,0c8.4,0,16.8,2.6,23.9,7.8l599.1,448.3
			c7.1,5.1,11.2,13.4,11.2,22.2v943.5C5576.2,2407.1,5564.2,2419.3,5549.5,2419.3"/>
	</g>
</g>
</svg>
