<svg id="svg2" xmlns="http://www.w3.org/2000/svg" viewBox="0 0 110.28 126.06"><title>Lamda_Logo4</title><g id="g10"><g id="g12"><path id="path26" d="M677.09,111.47s-.13,0-.15.09l-16,28.07a1.12,1.12,0,0,1-1,.58H646.87a1.12,1.12,0,0,1-1-.58,1.13,1.13,0,0,1,0-1.15L671.06,94.2a1.13,1.13,0,0,1,1-.58h10.11a1.12,1.12,0,0,1,1,.58l25.17,44.27a1.13,1.13,0,0,1,0,1.15,1.12,1.12,0,0,1-1,.58H694.25a1.12,1.12,0,0,1-1-.58l-16-28.07a.18.18,0,0,0-.15-.09h0Zm52.82-44.15H624.28A2.35,2.35,0,0,0,622,69.68v82.08a2.37,2.37,0,0,0,1,1.93l52,39a3.56,3.56,0,0,0,2.08.68h0a3.55,3.55,0,0,0,2.08-.67l52.12-39a2.37,2.37,0,0,0,1-1.93V69.68a2.34,2.34,0,0,0-2.32-2.36" transform="translate(-621.96 -67.31)" fill="#bb1a33"/></g></g></svg>