<svg id="svg2" xmlns="http://www.w3.org/2000/svg" viewBox="0 0 1361.87 380.03"><title>Lamda_Logo2</title><g id="g10"><g id="g12"><path id="path14" d="M533.38,230.25c-1.83-2.81-3.53-3.44-7.07-3.44h-64l-1.25-1.25L462,82.75a3.42,3.42,0,0,0-3.43-3.43H427.9a3.43,3.43,0,0,0-3.44,3.43L423.55,257a3.43,3.43,0,0,0,3.44,3.43H545.67c.85,0,2.43,0,3-1.34s.17-2.37-.61-3.82l-14.7-25" transform="translate(0 0)" fill="#bb1a33"/><path id="path16" d="M646,212.56a22.87,22.87,0,0,1-8.92,18.66c-5.84,4.67-13.67,7-23.28,7-6.66,0-12.17-1.56-16.35-4.66S591,225.87,591,220.1v-.52c0-6.66,2.63-11.82,7.83-15.35,5-3.42,12-5.15,20.73-5.15a64,64,0,0,1,13.93,1.46,61.73,61.73,0,0,1,11.81,3.85l.74,1.14Zm20.22-75.31A48.8,48.8,0,0,0,647.59,126c-7.55-2.63-16.82-4-27.54-4-11.63,0-21.67,1-29.86,3.08a156.35,156.35,0,0,0-20.47,6.64,2.56,2.56,0,0,0-1.46,3.18L575.82,158a2.55,2.55,0,0,0,3.28,1.59,131.16,131.16,0,0,1,14.8-4.29,94.21,94.21,0,0,1,20.43-2c10.14,0,17.94,2.29,23.19,6.8s8,11.28,8,19.94v2.34l-1.67,1.19a113.85,113.85,0,0,0-15.3-4.11,96.61,96.61,0,0,0-18.35-1.54,87.3,87.3,0,0,0-22.43,2.69,50.7,50.7,0,0,0-17.26,8,36.79,36.79,0,0,0-11.19,13.33c-2.68,5.34-4,11.8-4,19.2v.52a41.17,41.17,0,0,0,3.65,17.79,38.06,38.06,0,0,0,9.94,13,42.63,42.63,0,0,0,14.78,8,60.68,60.68,0,0,0,18.22,2.68c9.46,0,17.6-1.58,24.16-4.69a54,54,0,0,0,17-12.59l2.19.85V257.9a2.54,2.54,0,0,0,2.54,2.54H678.4a2.54,2.54,0,0,0,2.54-2.54V180.83a81.52,81.52,0,0,0-3.58-25,45.84,45.84,0,0,0-11.13-18.61" transform="translate(0 0)" fill="#bb1a33"/><path id="path18" d="M867.32,121a54.87,54.87,0,0,0-24.92,5.5,62.41,62.41,0,0,0-19.88,16.3l-2.09-.23a37.89,37.89,0,0,0-15-16C799,122.86,791.2,121,782.28,121A46.46,46.46,0,0,0,769,122.76a43.6,43.6,0,0,0-10.74,4.83,51.06,51.06,0,0,0-8.75,7,83.87,83.87,0,0,0-7.3,8.39l-2.26-.76V126.12a2.55,2.55,0,0,0-2.55-2.54H705.47a2.54,2.54,0,0,0-2.54,2.54V257.9a2.54,2.54,0,0,0,2.54,2.54h31.92a2.55,2.55,0,0,0,2.55-2.54V184.14c0-9.62,2.25-17,6.69-22s10.7-7.55,18.49-7.55,13.91,2.55,18.12,7.58,6.28,12.35,6.28,21.95V257.9a2.55,2.55,0,0,0,2.55,2.54H824a2.54,2.54,0,0,0,2.54-2.54V184.14c0-9.61,2.25-17,6.69-22s10.7-7.55,18.49-7.55,13.91,2.55,18.13,7.58,6.27,12.35,6.27,21.95V257.9a2.55,2.55,0,0,0,2.55,2.54h31.92a2.55,2.55,0,0,0,2.55-2.54V171c0-16.4-4.09-29-12.14-37.36S881.62,121,867.32,121" transform="translate(0 0)" fill="#bb1a33"/><path id="path20" d="M1326.94,212.56a22.89,22.89,0,0,1-8.92,18.66c-5.84,4.67-13.67,7-23.29,7-6.66,0-12.16-1.56-16.34-4.66s-6.5-7.72-6.5-13.49v-.52c0-6.66,2.63-11.82,7.83-15.35,5-3.42,12-5.15,20.74-5.15a63.91,63.91,0,0,1,13.92,1.46,61.5,61.5,0,0,1,11.81,3.85l.75,1.14Zm31.34-56.7a45.73,45.73,0,0,0-11.13-18.61A48.72,48.72,0,0,0,1328.51,126c-7.55-2.63-16.81-4-27.54-4-11.62,0-21.67,1-29.85,3.08a156,156,0,0,0-20.48,6.64,2.56,2.56,0,0,0-1.45,3.18l7.55,23.07a2.55,2.55,0,0,0,3.28,1.59,131.77,131.77,0,0,1,14.8-4.29,94.28,94.28,0,0,1,20.43-2c10.14,0,17.94,2.29,23.19,6.8s8,11.28,8,19.94v2.34l-1.66,1.19a114.4,114.4,0,0,0-15.31-4.11,96.54,96.54,0,0,0-18.35-1.54,87.35,87.35,0,0,0-22.43,2.69,50.79,50.79,0,0,0-17.26,8,36.79,36.79,0,0,0-11.19,13.33c-2.67,5.34-4,11.8-4,19.2v.52a41.17,41.17,0,0,0,3.65,17.79,38.09,38.09,0,0,0,10,13,42.54,42.54,0,0,0,14.78,8,60.66,60.66,0,0,0,18.21,2.68c9.47,0,17.6-1.58,24.17-4.69a54,54,0,0,0,17-12.59l2.19.85V257.9a2.55,2.55,0,0,0,2.55,2.54h30.62a2.55,2.55,0,0,0,2.55-2.54V180.83a81.21,81.21,0,0,0-3.59-25" transform="translate(0 0)" fill="#bb1a33"/><path id="path22" d="M1033.87,192.53a48.65,48.65,0,0,1-2.57,16.32,39.94,39.94,0,0,1-7,12.49,31.67,31.67,0,0,1-10.24,8.1,28.8,28.8,0,0,1-24.94,0A30.3,30.3,0,0,1,979,221.33a41.14,41.14,0,0,1-6.88-12.62,49.24,49.24,0,0,1-2.57-16.18V192a49.33,49.33,0,0,1,2.57-16.18A41.09,41.09,0,0,1,979,163.22a30.05,30.05,0,0,1,10.13-8.11,28.8,28.8,0,0,1,24.94,0,31.54,31.54,0,0,1,10.24,8.1,39.63,39.63,0,0,1,7,12.62,49,49,0,0,1,2.57,16.18Zm18.4-53.08a53.84,53.84,0,0,0-40.35-18.21c-9.48,0-17.43,2.08-23.63,6.18a59.73,59.73,0,0,0-16.13,15.93l-2.13-.74V81.9a2.47,2.47,0,0,0-2.39-2.54H937.72a2.47,2.47,0,0,0-2.39,2.54v176a2.47,2.47,0,0,0,2.39,2.54h29.92A2.47,2.47,0,0,0,970,257.9V243.76l2.08-.81A65.62,65.62,0,0,0,988,257.25c6.21,4,14.24,6.06,23.89,6.06a54.76,54.76,0,0,0,22-4.59,53,53,0,0,0,18.48-13.61,70.35,70.35,0,0,0,12.92-22.23c3.26-8.74,4.92-18.95,4.92-30.35V192c0-11.38-1.66-21.59-4.92-30.35a69.2,69.2,0,0,0-13-22.21" transform="translate(0 0)" fill="#bb1a33"/><path id="path24" d="M1186.53,192.53a49,49,0,0,1-2.57,16.18,41.14,41.14,0,0,1-6.88,12.62,30.3,30.3,0,0,1-10.13,8.11,28.8,28.8,0,0,1-24.94,0,31.67,31.67,0,0,1-10.24-8.1,40.14,40.14,0,0,1-7-12.49,48.65,48.65,0,0,1-2.57-16.32V192a49,49,0,0,1,2.57-16.18,39.83,39.83,0,0,1,7-12.62,31.54,31.54,0,0,1,10.24-8.1,28.8,28.8,0,0,1,24.94,0,30.05,30.05,0,0,1,10.13,8.11,41.09,41.09,0,0,1,6.88,12.61,49.06,49.06,0,0,1,2.57,16.18Zm31.82-113.17h-29.92A2.47,2.47,0,0,0,1186,81.9v60.71c-2.4.79-2.51.19-2.7-.08a59.54,59.54,0,0,0-15.56-15.11c-6.2-4.1-14.15-6.18-23.63-6.18a53.84,53.84,0,0,0-40.35,18.21,69.2,69.2,0,0,0-13,22.21c-3.26,8.76-4.92,19-4.92,30.35v.52c0,11.4,1.66,21.61,4.92,30.35a70.35,70.35,0,0,0,12.92,22.23,52.92,52.92,0,0,0,18.49,13.61,54.72,54.72,0,0,0,22,4.59c9.65,0,17.69-2,23.89-6.06A65.62,65.62,0,0,0,1184,243l2.08.81V257.9a2.47,2.47,0,0,0,2.39,2.54h29.92a2.47,2.47,0,0,0,2.39-2.54V81.9a2.47,2.47,0,0,0-2.39-2.54" transform="translate(0 0)" fill="#bb1a33"/><path id="path26" d="M166.22,133.13c-.09,0-.39,0-.46.27L117.47,218a3.42,3.42,0,0,1-3,1.73l-39.41,0a3.37,3.37,0,0,1-3-1.74,3.52,3.52,0,0,1,0-3.47L148,81.06a3.38,3.38,0,0,1,3-1.74h30.47a3.4,3.4,0,0,1,3,1.74L260.3,214.51a3.47,3.47,0,0,1,0,3.47,3.37,3.37,0,0,1-2.95,1.74l-39.42,0a3.42,3.42,0,0,1-3-1.73L166.68,133.4a.51.51,0,0,0-.46-.27ZM325.44,0H7A7.06,7.06,0,0,0,0,7.13V254.58a7.19,7.19,0,0,0,3,5.82L159.82,378a10.69,10.69,0,0,0,6.27,2v0h0a10.69,10.69,0,0,0,6.27-2L329.5,260.41a7.18,7.18,0,0,0,2.94-5.82V7.15a7.07,7.07,0,0,0-7-7.14" transform="translate(0 0)" fill="#bb1a33"/></g></g></svg>