<svg id="svg2" xmlns="http://www.w3.org/2000/svg" viewBox="0 0 332.44 380.03"><title>Lamda_Logo3</title><g id="g10"><g id="g12"><path id="path26" d="M639.58,133.13c-.09,0-.39,0-.45.27L590.83,218a3.45,3.45,0,0,1-3,1.74l-39.42,0a3.37,3.37,0,0,1-3-1.74,3.52,3.52,0,0,1,0-3.47L621.39,81.06a3.4,3.4,0,0,1,3-1.74h30.47a3.42,3.42,0,0,1,3,1.74l75.88,133.45a3.47,3.47,0,0,1,0,3.47,3.35,3.35,0,0,1-2.95,1.74l-39.42,0a3.46,3.46,0,0,1-3-1.74L640,133.4a.53.53,0,0,0-.45-.27ZM798.81,0H480.36a7.07,7.07,0,0,0-7,7.13V254.58a7.19,7.19,0,0,0,2.95,5.82L633.18,378a10.56,10.56,0,0,0,6.28,2v0h0a10.69,10.69,0,0,0,6.27-2L802.86,260.41a7.18,7.18,0,0,0,2.94-5.82V7.15a7.07,7.07,0,0,0-7-7.14" transform="translate(-473.36 0)" fill="#bb1a33"/></g></g></svg>