<svg id="svg" xmlns="http://www.w3.org/2000/svg" xmlns:xlink="http://www.w3.org/1999/xlink" width="400" height="111.6" viewBox="0, 0, 400,111.6"><g id="svgg"><path id="path0" d="M0.551 0.402 L 0.083 0.804 0.041 38.304 L -0.002 75.804 0.541 76.307 C 1.510 77.205,2.730 78.159,2.809 78.079 C 2.852 78.037,2.992 78.152,3.120 78.335 C 3.249 78.519,3.593 78.791,3.885 78.941 C 4.177 79.091,4.456 79.274,4.505 79.349 C 4.554 79.423,5.154 79.895,5.838 80.396 C 6.523 80.897,7.233 81.426,7.417 81.571 C 9.104 82.904,9.927 83.463,10.075 83.379 C 10.171 83.325,10.194 83.341,10.126 83.417 C 10.008 83.547,10.398 83.913,10.750 84.003 C 10.842 84.026,11.067 84.208,11.250 84.408 C 11.546 84.730,11.958 85.041,12.808 85.583 C 12.952 85.675,13.156 85.825,13.261 85.917 C 13.367 86.008,13.708 86.283,14.019 86.527 C 14.329 86.771,14.875 87.202,15.231 87.485 C 15.588 87.768,15.930 88.000,15.991 88.000 C 16.053 88.000,16.249 88.133,16.427 88.296 C 16.605 88.459,17.012 88.776,17.333 89.000 C 17.654 89.224,18.103 89.578,18.332 89.787 C 18.560 89.996,18.841 90.167,18.957 90.167 C 19.072 90.167,19.167 90.239,19.167 90.326 C 19.167 90.414,19.504 90.684,19.917 90.925 C 20.329 91.167,20.667 91.417,20.667 91.480 C 20.667 91.543,20.910 91.736,21.208 91.909 C 21.506 92.082,21.970 92.436,22.240 92.695 C 22.509 92.955,22.831 93.167,22.954 93.167 C 23.077 93.167,23.221 93.282,23.275 93.423 C 23.329 93.564,23.583 93.787,23.838 93.919 C 24.093 94.051,24.427 94.284,24.580 94.437 C 24.960 94.817,25.980 95.500,26.168 95.500 C 26.253 95.500,26.402 95.650,26.500 95.833 C 26.598 96.017,26.791 96.167,26.928 96.167 C 27.065 96.167,27.223 96.285,27.278 96.429 C 27.333 96.574,27.537 96.765,27.731 96.853 C 28.446 97.180,28.829 97.449,28.725 97.553 C 28.667 97.611,28.761 97.712,28.934 97.776 C 29.108 97.841,29.592 98.180,30.011 98.530 C 30.429 98.880,30.829 99.167,30.899 99.167 C 31.050 99.167,32.558 100.359,32.639 100.542 C 32.669 100.610,32.762 100.667,32.845 100.667 C 32.987 100.667,33.158 100.793,34.056 101.558 C 34.254 101.727,34.623 101.972,34.875 102.104 C 35.127 102.235,35.333 102.415,35.333 102.504 C 35.333 102.594,35.411 102.667,35.507 102.667 C 35.681 102.667,35.908 102.827,36.512 103.375 C 36.689 103.535,36.908 103.667,37.000 103.667 C 37.092 103.667,37.170 103.723,37.174 103.792 C 37.179 103.860,37.561 104.179,38.025 104.500 C 38.488 104.821,39.101 105.290,39.387 105.542 C 39.674 105.794,39.966 106.000,40.037 106.000 C 40.108 106.000,40.303 106.131,40.470 106.292 C 40.831 106.639,41.786 107.333,41.902 107.333 C 41.948 107.333,42.184 107.512,42.428 107.731 C 43.217 108.439,43.469 108.639,43.947 108.936 C 44.205 109.096,44.498 109.323,44.597 109.441 C 44.697 109.558,45.109 109.844,45.514 110.075 C 45.919 110.307,46.184 110.497,46.103 110.498 C 45.889 110.501,46.669 111.062,47.216 111.298 C 48.242 111.742,51.000 111.382,51.000 110.805 C 51.000 110.718,51.070 110.690,51.156 110.744 C 51.242 110.797,51.374 110.736,51.448 110.609 C 51.522 110.482,51.823 110.256,52.117 110.106 C 52.410 109.956,52.710 109.732,52.783 109.608 C 52.857 109.483,53.235 109.182,53.625 108.939 C 54.015 108.695,54.333 108.422,54.333 108.331 C 54.333 108.241,54.440 108.167,54.571 108.167 C 54.702 108.167,55.073 107.918,55.395 107.615 C 55.717 107.311,56.172 106.975,56.407 106.868 C 56.641 106.761,56.833 106.597,56.833 106.504 C 56.833 106.410,56.940 106.333,57.071 106.333 C 57.202 106.333,57.460 106.142,57.644 105.908 C 57.828 105.674,58.022 105.489,58.076 105.496 C 58.210 105.515,58.961 104.992,59.395 104.578 C 59.590 104.392,59.958 104.149,60.213 104.038 C 60.468 103.927,60.719 103.723,60.773 103.585 C 60.826 103.446,60.958 103.333,61.066 103.333 C 61.175 103.333,61.542 103.071,61.882 102.750 C 62.222 102.429,62.569 102.167,62.651 102.167 C 62.798 102.167,63.874 101.347,64.619 100.669 C 64.822 100.485,65.031 100.333,65.084 100.333 C 65.203 100.333,66.185 99.648,66.415 99.405 C 66.507 99.307,66.795 99.096,67.053 98.936 C 67.524 98.644,67.768 98.451,68.549 97.754 C 68.780 97.548,69.257 97.205,69.609 96.990 C 69.962 96.776,70.295 96.535,70.351 96.454 C 70.407 96.374,70.744 96.129,71.101 95.909 C 71.458 95.690,71.675 95.507,71.583 95.502 C 71.492 95.498,71.686 95.327,72.015 95.122 C 73.458 94.224,74.333 93.608,74.333 93.491 C 74.333 93.422,74.671 93.167,75.083 92.925 C 75.496 92.684,75.833 92.421,75.833 92.342 C 75.833 92.263,76.171 92.001,76.583 91.759 C 76.996 91.517,77.333 91.252,77.333 91.171 C 77.333 91.089,77.486 90.974,77.672 90.915 C 77.858 90.856,78.215 90.627,78.464 90.406 C 79.153 89.796,79.227 89.742,79.542 89.622 C 79.702 89.561,79.833 89.433,79.833 89.339 C 79.833 89.244,79.911 89.167,80.006 89.167 C 80.220 89.167,83.039 87.054,83.829 86.301 C 84.147 85.998,84.422 85.787,84.440 85.833 C 84.488 85.956,87.333 83.794,87.333 83.635 C 87.333 83.561,87.446 83.500,87.583 83.500 C 87.721 83.500,87.833 83.425,87.833 83.333 C 87.833 83.242,87.914 83.167,88.012 83.167 C 88.110 83.167,88.546 82.867,88.981 82.500 C 89.416 82.133,89.831 81.833,89.905 81.833 C 90.067 81.833,91.017 81.088,91.679 80.441 C 91.947 80.179,92.167 80.012,92.167 80.070 C 92.167 80.128,92.659 79.799,93.260 79.338 C 93.861 78.877,94.428 78.500,94.520 78.500 C 94.611 78.500,94.641 78.427,94.586 78.338 C 94.532 78.249,94.753 78.065,95.079 77.929 C 95.405 77.793,95.716 77.566,95.770 77.424 C 95.825 77.283,95.931 77.167,96.006 77.167 C 96.308 77.167,97.319 76.392,97.528 76.000 C 97.885 75.330,97.940 1.963,97.584 1.111 C 97.077 -0.102,101.574 0.000,48.684 0.000 L 1.019 0.000 0.551 0.402 M124.973 23.279 C 124.482 23.409,124.479 23.544,124.379 49.583 C 124.286 73.923,124.314 76.634,124.664 76.419 C 124.744 76.369,124.858 76.405,124.916 76.499 C 125.149 76.876,160.789 76.711,161.170 76.330 C 161.588 75.912,161.508 74.865,161.031 74.503 C 160.968 74.456,160.737 74.079,160.517 73.667 C 160.298 73.254,159.978 72.761,159.808 72.571 C 159.637 72.381,159.548 72.175,159.610 72.113 C 159.672 72.051,159.635 72.000,159.528 72.000 C 159.421 72.000,159.341 71.944,159.351 71.875 C 159.384 71.646,159.129 71.000,159.006 71.000 C 158.939 71.000,158.749 70.700,158.583 70.333 C 158.418 69.967,158.230 69.667,158.167 69.667 C 158.103 69.667,157.916 69.369,157.752 69.005 C 157.588 68.641,157.314 68.217,157.144 68.062 C 156.973 67.908,156.832 67.700,156.830 67.599 C 156.828 67.499,156.682 67.229,156.506 67.000 L 156.186 66.583 145.968 66.500 L 135.750 66.417 135.750 45.068 C 135.750 27.218,135.713 23.674,135.521 23.443 C 135.302 23.178,125.903 23.032,124.973 23.279 M274.759 23.537 C 274.324 24.159,274.368 75.996,274.805 76.391 C 275.323 76.860,284.601 76.804,284.751 76.331 C 284.809 76.146,284.927 76.038,285.012 76.091 C 285.104 76.148,285.167 75.274,285.167 73.927 C 285.167 71.299,285.123 71.333,286.617 72.792 C 288.439 74.570,289.912 75.720,290.767 76.029 C 291.079 76.141,291.333 76.298,291.333 76.377 C 291.333 76.455,291.408 76.473,291.500 76.417 C 291.592 76.360,291.667 76.382,291.667 76.464 C 291.667 76.627,293.911 77.167,294.588 77.167 C 294.815 77.167,295.000 77.242,295.000 77.335 C 295.000 77.537,298.916 77.540,299.316 77.337 C 299.463 77.263,300.141 77.117,300.822 77.013 C 301.503 76.909,302.147 76.752,302.254 76.663 C 302.360 76.575,302.497 76.552,302.557 76.613 C 302.617 76.673,302.667 76.642,302.667 76.543 C 302.667 76.445,302.817 76.404,303.000 76.452 C 303.186 76.500,303.333 76.457,303.333 76.353 C 303.333 76.250,303.413 76.167,303.511 76.167 C 303.807 76.167,305.350 75.461,305.257 75.368 C 305.209 75.320,305.543 75.096,305.999 74.870 C 306.455 74.645,306.788 74.394,306.738 74.313 C 306.688 74.233,306.763 74.167,306.905 74.167 C 307.382 74.167,310.196 71.183,310.816 70.020 C 310.944 69.780,311.107 69.545,311.178 69.498 C 311.249 69.452,311.331 69.304,311.362 69.169 C 311.392 69.035,311.510 68.824,311.625 68.700 C 311.740 68.577,311.833 68.327,311.833 68.145 C 311.833 67.963,311.899 67.854,311.979 67.903 C 312.109 67.984,312.457 67.219,312.748 66.208 C 312.807 66.002,312.913 65.833,312.983 65.833 C 313.054 65.833,313.121 65.740,313.134 65.625 C 313.166 65.330,313.843 62.634,313.960 62.333 C 314.013 62.196,314.066 61.933,314.076 61.750 C 314.086 61.567,314.157 61.316,314.234 61.192 C 314.662 60.502,314.459 50.802,314.011 50.500 C 313.943 50.454,313.792 49.929,313.677 49.333 C 313.562 48.737,313.319 47.950,313.138 47.583 C 312.958 47.217,312.779 46.767,312.741 46.583 C 312.672 46.253,311.670 44.160,311.503 44.000 C 311.456 43.954,311.398 43.823,311.375 43.709 C 311.317 43.417,310.163 41.825,309.684 41.375 C 309.464 41.169,309.347 41.000,309.424 41.000 C 309.501 41.000,309.015 40.475,308.345 39.833 C 307.675 39.192,307.055 38.667,306.968 38.667 C 306.881 38.667,306.705 38.573,306.577 38.458 C 306.449 38.344,306.224 38.147,306.075 38.022 C 305.668 37.678,303.824 36.744,303.076 36.503 C 302.713 36.386,302.342 36.233,302.250 36.162 C 301.479 35.573,294.318 35.240,293.494 35.756 C 293.360 35.840,293.063 35.933,292.833 35.964 C 292.604 35.995,292.392 36.091,292.361 36.177 C 292.331 36.263,292.221 36.333,292.117 36.333 C 291.684 36.333,290.514 36.889,290.612 37.047 C 290.675 37.148,290.636 37.167,290.517 37.094 C 290.399 37.021,290.186 37.118,290.004 37.329 C 289.832 37.527,289.661 37.665,289.624 37.636 C 289.478 37.523,287.692 39.132,286.592 40.366 C 285.956 41.082,285.374 41.667,285.301 41.667 C 285.227 41.667,285.167 37.628,285.167 32.692 C 285.167 24.210,285.150 23.703,284.862 23.442 C 284.314 22.947,275.112 23.033,274.759 23.537 M348.334 23.498 C 348.228 23.697,348.167 27.081,348.167 32.751 C 348.167 41.126,348.148 41.688,347.879 41.636 C 347.721 41.605,347.515 41.431,347.421 41.249 C 347.327 41.066,347.039 40.692,346.780 40.417 C 346.522 40.142,346.184 39.776,346.030 39.604 C 345.584 39.107,342.699 36.810,342.464 36.764 C 342.346 36.742,341.837 36.531,341.333 36.295 C 339.221 35.309,332.049 35.217,331.102 36.165 C 331.009 36.257,330.828 36.333,330.700 36.333 C 330.354 36.333,327.735 37.589,327.155 38.033 C 326.738 38.352,325.396 39.442,324.750 39.986 C 324.313 40.353,322.491 42.671,322.097 43.358 C 321.351 44.663,320.668 46.057,320.740 46.129 C 320.783 46.172,320.709 46.315,320.575 46.448 C 320.442 46.582,320.333 46.867,320.333 47.083 C 320.333 47.299,320.222 47.588,320.086 47.724 C 319.950 47.860,319.819 48.221,319.794 48.527 C 319.770 48.833,319.696 49.124,319.631 49.173 C 319.248 49.460,318.794 53.412,318.789 56.500 C 318.783 59.921,318.811 60.467,318.996 60.581 C 319.090 60.639,319.168 60.926,319.170 61.218 C 319.175 61.893,319.779 64.649,319.977 64.897 C 320.059 64.999,320.249 65.510,320.398 66.031 C 320.548 66.553,320.778 67.088,320.910 67.220 C 321.042 67.352,321.198 67.650,321.256 67.883 C 321.346 68.240,321.802 69.016,323.037 70.910 C 323.154 71.090,323.531 71.524,323.875 71.875 C 324.219 72.226,324.501 72.566,324.502 72.631 C 324.510 73.102,328.253 75.674,329.440 76.025 C 329.840 76.143,330.167 76.302,330.167 76.380 C 330.167 76.457,330.242 76.473,330.333 76.417 C 330.425 76.360,330.500 76.382,330.500 76.464 C 330.500 76.649,332.785 77.167,333.598 77.167 C 333.922 77.167,334.145 77.233,334.095 77.315 C 333.941 77.563,337.984 77.404,339.500 77.101 C 340.918 76.818,343.178 75.879,343.688 75.359 C 344.039 75.002,344.538 74.596,344.750 74.496 C 344.842 74.452,344.896 74.355,344.871 74.279 C 344.846 74.204,344.895 74.185,344.981 74.239 C 345.145 74.340,347.667 71.917,347.667 71.658 C 347.667 71.577,347.774 71.551,347.904 71.602 C 348.090 71.673,348.154 72.193,348.196 74.000 C 348.226 75.268,348.312 76.369,348.389 76.445 C 348.693 76.748,358.231 76.690,358.458 76.383 C 358.784 75.945,358.762 23.620,358.436 23.349 C 357.988 22.977,348.538 23.117,348.334 23.498 M53.834 23.714 C 53.972 23.825,54.266 24.310,54.487 24.792 C 54.709 25.273,54.941 25.667,55.003 25.667 C 55.065 25.667,55.242 25.948,55.397 26.292 C 55.551 26.635,55.936 27.367,56.253 27.917 C 56.569 28.467,57.062 29.361,57.348 29.904 C 57.633 30.447,57.970 30.994,58.096 31.120 C 58.221 31.245,58.479 31.663,58.668 32.049 C 59.481 33.711,59.767 34.177,59.893 34.051 C 59.967 33.977,60.010 33.992,59.988 34.083 C 59.905 34.431,61.677 37.671,62.024 37.806 C 62.102 37.836,62.167 37.956,62.167 38.071 C 62.167 38.186,62.352 38.611,62.579 39.015 C 62.805 39.419,63.221 40.162,63.503 40.667 C 64.474 42.404,64.584 42.584,64.750 42.706 C 64.861 42.787,64.861 42.831,64.750 42.836 C 64.658 42.840,64.697 42.935,64.835 43.047 C 65.090 43.252,65.577 44.162,65.536 44.355 C 65.523 44.413,65.660 44.593,65.840 44.756 C 66.020 44.919,66.167 45.136,66.167 45.239 C 66.167 45.342,66.296 45.611,66.455 45.837 C 66.613 46.063,66.758 46.353,66.777 46.482 C 66.796 46.611,66.878 46.762,66.959 46.817 C 67.041 46.872,67.399 47.460,67.756 48.125 C 68.112 48.790,68.463 49.333,68.535 49.333 C 68.607 49.333,68.667 49.441,68.667 49.572 C 68.667 49.832,69.671 51.548,69.876 51.639 C 69.945 51.670,69.960 51.764,69.908 51.848 C 69.856 51.931,69.885 52.000,69.972 52.000 C 70.059 52.000,70.178 52.188,70.235 52.417 C 70.293 52.646,70.413 52.833,70.503 52.833 C 70.593 52.833,70.667 52.979,70.667 53.157 C 70.667 53.335,70.743 53.527,70.836 53.585 C 70.929 53.642,71.113 53.947,71.244 54.261 C 71.375 54.576,71.562 54.833,71.658 54.833 C 71.755 54.833,71.833 54.983,71.833 55.167 C 71.833 55.350,71.903 55.500,71.987 55.500 C 72.072 55.500,72.222 55.746,72.321 56.047 C 72.421 56.347,72.760 56.985,73.075 57.463 C 73.390 57.942,73.615 58.333,73.576 58.333 C 73.536 58.333,73.755 58.727,74.062 59.208 C 74.369 59.690,74.674 60.253,74.739 60.461 C 74.804 60.668,74.919 60.800,74.994 60.754 C 75.070 60.707,75.182 60.872,75.244 61.120 C 75.307 61.368,75.561 61.874,75.811 62.244 C 76.060 62.614,76.312 62.995,76.370 63.090 C 76.429 63.185,76.360 63.504,76.217 63.798 L 75.958 64.333 69.813 64.333 C 66.432 64.333,63.667 64.276,63.667 64.207 C 63.667 64.137,63.463 63.860,63.213 63.591 C 62.964 63.322,62.744 62.993,62.724 62.859 C 62.705 62.726,62.602 62.563,62.497 62.498 C 62.391 62.433,62.310 62.313,62.317 62.231 C 62.341 61.943,62.142 61.500,61.989 61.500 C 61.903 61.500,61.833 61.440,61.833 61.367 C 61.833 61.176,60.158 58.182,59.667 57.497 C 59.439 57.178,59.270 56.879,59.294 56.833 C 59.317 56.788,59.235 56.631,59.110 56.487 C 58.986 56.342,58.705 55.854,58.484 55.403 C 58.264 54.952,57.990 54.484,57.875 54.363 C 57.760 54.242,57.667 54.070,57.667 53.980 C 57.667 53.891,57.419 53.427,57.117 52.950 C 56.814 52.473,56.470 51.845,56.352 51.554 C 56.233 51.262,56.038 50.986,55.917 50.940 C 55.797 50.894,55.650 50.636,55.591 50.367 C 55.532 50.098,55.356 49.734,55.200 49.558 C 55.044 49.381,54.731 48.865,54.504 48.410 C 54.277 47.955,54.050 47.546,54.000 47.500 C 53.950 47.454,53.723 47.042,53.496 46.583 C 53.269 46.125,53.038 45.712,52.982 45.667 C 52.926 45.621,52.746 45.321,52.583 45.000 C 52.420 44.679,52.235 44.379,52.171 44.333 C 52.108 44.288,51.856 43.825,51.613 43.306 C 51.370 42.787,51.114 42.337,51.044 42.306 C 50.974 42.275,50.735 41.856,50.513 41.375 C 50.291 40.894,50.048 40.500,49.972 40.500 C 49.896 40.500,49.833 40.424,49.833 40.330 C 49.833 39.990,49.024 38.889,48.774 38.889 C 48.633 38.889,48.429 39.101,48.322 39.361 C 48.214 39.621,48.079 39.834,48.021 39.835 C 47.964 39.836,47.734 40.248,47.510 40.752 C 47.286 41.255,47.034 41.667,46.950 41.667 C 46.866 41.667,46.842 41.783,46.897 41.925 C 46.952 42.068,46.935 42.146,46.861 42.100 C 46.786 42.054,46.559 42.331,46.356 42.717 C 45.693 43.975,45.085 45.075,44.819 45.500 C 43.879 47.001,43.333 48.002,43.333 48.225 C 43.333 48.367,43.231 48.543,43.106 48.617 C 42.866 48.758,42.258 49.833,42.419 49.833 C 42.471 49.833,42.355 50.002,42.162 50.208 C 41.725 50.676,40.994 52.105,41.125 52.236 C 41.178 52.290,41.140 52.333,41.039 52.333 C 40.939 52.333,40.688 52.671,40.482 53.083 C 40.276 53.496,40.064 53.833,40.011 53.833 C 39.931 53.833,39.469 54.723,39.406 55.000 C 39.344 55.272,38.845 56.221,38.836 56.083 C 38.825 55.904,38.211 56.929,37.290 58.667 C 36.311 60.512,36.093 60.886,35.796 61.226 C 35.637 61.406,35.425 61.805,35.324 62.111 C 35.223 62.416,35.059 62.667,34.959 62.667 C 34.859 62.667,34.823 62.712,34.879 62.768 C 34.934 62.823,34.911 62.955,34.826 63.059 C 34.741 63.164,34.476 63.494,34.238 63.792 L 33.804 64.333 27.763 64.333 L 21.723 64.333 21.497 63.911 C 21.217 63.388,21.420 62.738,22.262 61.458 C 22.576 60.981,22.833 60.495,22.833 60.379 C 22.833 60.262,22.894 60.167,22.968 60.167 C 23.042 60.167,23.235 59.867,23.397 59.500 C 23.559 59.133,23.789 58.735,23.909 58.615 C 24.029 58.495,24.329 57.970,24.575 57.449 C 24.822 56.927,25.082 56.500,25.152 56.500 C 25.222 56.500,25.379 56.201,25.499 55.836 C 25.620 55.470,25.857 55.046,26.026 54.893 C 26.195 54.740,26.333 54.544,26.333 54.458 C 26.333 54.371,26.585 53.876,26.893 53.358 C 28.185 51.187,28.672 50.287,28.771 49.892 C 28.829 49.661,28.973 49.436,29.092 49.390 C 29.210 49.345,29.423 49.020,29.563 48.668 C 29.704 48.316,29.899 47.979,29.996 47.919 C 30.093 47.859,30.134 47.749,30.088 47.674 C 30.042 47.599,30.115 47.445,30.252 47.332 C 30.388 47.219,30.500 47.057,30.500 46.973 C 30.500 46.888,30.631 46.675,30.792 46.499 C 30.952 46.323,31.383 45.594,31.750 44.881 C 32.117 44.167,32.463 43.546,32.519 43.500 C 32.576 43.454,32.674 43.248,32.739 43.042 C 32.803 42.835,32.930 42.667,33.021 42.667 C 33.112 42.667,33.140 42.592,33.083 42.500 C 33.027 42.408,33.055 42.333,33.146 42.333 C 33.236 42.333,33.363 42.165,33.427 41.958 C 33.491 41.752,33.689 41.377,33.867 41.125 C 34.044 40.873,34.146 40.667,34.093 40.667 C 34.041 40.667,34.263 40.289,34.588 39.827 C 34.913 39.365,35.134 38.915,35.079 38.827 C 35.025 38.739,35.054 38.667,35.145 38.667 C 35.235 38.667,35.419 38.460,35.553 38.208 C 36.654 36.141,36.882 35.740,36.997 35.667 C 37.069 35.621,37.299 35.208,37.508 34.750 C 37.717 34.292,38.000 33.785,38.137 33.625 C 38.273 33.465,38.333 33.333,38.269 33.333 C 38.206 33.333,38.233 33.240,38.329 33.125 C 38.721 32.660,39.315 31.666,39.203 31.664 C 39.137 31.663,39.158 31.606,39.250 31.539 C 39.434 31.404,39.756 30.883,40.509 29.500 C 40.783 28.996,41.165 28.321,41.358 28.000 C 41.550 27.679,41.722 27.317,41.740 27.195 C 41.759 27.073,41.849 26.923,41.942 26.862 C 42.034 26.800,42.292 26.377,42.513 25.922 C 42.735 25.466,43.048 24.960,43.208 24.797 C 43.369 24.633,43.500 24.412,43.500 24.305 C 43.500 24.197,43.624 23.972,43.776 23.805 C 44.122 23.422,53.371 23.338,53.834 23.714 M227.417 35.492 C 226.958 35.566,226.396 35.672,226.167 35.727 C 225.938 35.782,225.544 35.872,225.292 35.927 C 225.040 35.982,224.833 36.086,224.833 36.159 C 224.833 36.232,224.590 36.340,224.292 36.400 C 223.994 36.460,223.357 36.769,222.878 37.087 C 222.398 37.406,221.954 37.667,221.891 37.667 C 221.677 37.667,219.039 40.262,218.376 41.125 C 217.596 42.141,217.500 41.925,217.500 39.167 C 217.500 35.691,218.044 36.000,211.919 36.000 C 207.509 36.000,206.969 36.029,206.669 36.287 C 206.203 36.685,206.132 75.941,206.595 76.405 C 206.900 76.709,216.696 76.801,217.167 76.504 C 217.384 76.366,217.429 74.719,217.511 63.965 C 217.563 57.155,217.664 51.396,217.736 51.167 C 217.808 50.938,217.964 50.525,218.084 50.250 C 218.204 49.975,218.418 49.468,218.559 49.124 C 219.580 46.646,223.399 45.011,226.500 45.724 C 227.325 45.913,227.773 46.082,227.969 46.278 C 228.091 46.400,228.300 46.500,228.433 46.500 C 228.707 46.500,230.167 47.899,230.167 48.162 C 230.167 48.256,230.234 48.333,230.317 48.333 C 230.441 48.333,230.588 48.620,230.914 49.500 C 230.931 49.546,231.034 49.799,231.142 50.061 C 231.599 51.166,231.675 53.237,231.669 64.477 C 231.663 75.053,231.687 76.079,231.941 76.360 C 232.381 76.847,242.400 76.832,242.661 76.344 C 242.775 76.131,242.833 72.130,242.833 64.521 C 242.833 56.294,242.886 52.987,243.018 52.906 C 243.146 52.826,243.134 52.748,242.976 52.648 C 242.810 52.543,242.805 52.504,242.958 52.503 C 243.073 52.501,243.167 52.299,243.167 52.053 C 243.167 51.284,243.831 49.102,244.216 48.608 C 244.897 47.732,245.978 46.696,246.323 46.587 C 246.512 46.527,246.667 46.408,246.667 46.322 C 246.667 46.237,246.723 46.179,246.792 46.194 C 246.860 46.208,247.142 46.118,247.417 45.993 C 248.174 45.648,252.254 45.664,252.917 46.014 C 254.687 46.951,254.874 47.110,255.797 48.470 C 256.248 49.135,256.836 50.609,256.703 50.741 C 256.652 50.792,256.689 50.833,256.785 50.833 C 256.881 50.833,256.940 51.060,256.916 51.336 C 256.893 51.612,256.940 51.879,257.020 51.929 C 257.102 51.980,257.167 57.301,257.167 64.021 C 257.167 72.073,257.224 76.129,257.341 76.348 C 257.555 76.748,267.530 76.842,268.067 76.449 C 268.425 76.187,268.404 46.070,268.045 45.638 C 267.933 45.502,267.794 45.097,267.738 44.737 C 267.681 44.378,267.568 44.001,267.486 43.901 C 267.403 43.801,267.384 43.672,267.442 43.614 C 267.500 43.556,267.453 43.394,267.337 43.254 C 267.221 43.114,267.168 43.000,267.221 43.000 C 267.357 43.000,266.211 40.721,265.870 40.316 C 265.023 39.307,263.158 37.520,262.852 37.423 C 262.658 37.361,262.500 37.241,262.500 37.155 C 262.500 37.070,262.444 37.012,262.375 37.027 C 262.306 37.041,261.912 36.893,261.500 36.697 C 261.087 36.501,260.656 36.339,260.542 36.337 C 260.427 36.335,260.333 36.269,260.333 36.191 C 260.333 35.206,249.804 35.219,249.150 36.205 C 249.095 36.288,248.945 36.373,248.817 36.395 C 248.241 36.493,247.235 36.889,247.083 37.077 C 246.991 37.192,246.749 37.338,246.545 37.402 C 245.844 37.625,244.413 38.713,243.156 39.980 C 241.349 41.800,241.392 41.771,240.997 41.414 C 240.815 41.249,240.667 41.014,240.667 40.891 C 240.667 40.768,240.587 40.667,240.490 40.667 C 240.393 40.667,240.352 40.605,240.399 40.529 C 240.446 40.453,240.263 40.148,239.992 39.852 C 239.721 39.555,239.500 39.249,239.500 39.171 C 239.500 39.093,239.201 38.809,238.835 38.540 C 238.470 38.271,238.211 38.011,238.260 37.962 C 238.309 37.913,238.158 37.825,237.924 37.767 C 237.691 37.708,237.500 37.587,237.500 37.497 C 237.500 37.407,237.399 37.333,237.276 37.333 C 237.153 37.333,236.926 37.195,236.773 37.026 C 236.620 36.856,236.177 36.624,235.789 36.508 C 235.401 36.393,234.993 36.225,234.882 36.135 C 234.772 36.045,234.609 36.016,234.522 36.070 C 234.434 36.124,234.337 36.095,234.306 36.004 C 234.161 35.578,229.175 35.207,227.417 35.492 M176.588 35.868 C 175.765 35.950,175.053 36.074,175.004 36.142 C 174.927 36.251,174.227 36.406,172.167 36.767 C 171.846 36.823,171.453 36.938,171.294 37.023 C 171.134 37.107,170.497 37.328,169.877 37.514 C 169.257 37.700,168.675 37.875,168.583 37.905 C 168.492 37.934,168.372 37.948,168.317 37.937 C 168.263 37.926,168.086 38.026,167.925 38.159 C 167.765 38.293,167.511 38.420,167.363 38.442 C 166.722 38.536,166.470 39.535,166.885 40.333 C 167.005 40.563,167.283 41.387,167.505 42.167 C 167.726 42.946,167.960 43.622,168.025 43.669 C 168.090 43.717,168.270 44.260,168.425 44.878 C 168.580 45.495,168.781 46.000,168.871 46.000 C 168.962 46.000,168.989 46.122,168.932 46.271 C 168.676 46.937,169.721 47.162,171.083 46.735 C 171.542 46.592,171.992 46.459,172.083 46.441 C 172.175 46.422,172.344 46.349,172.458 46.277 C 172.573 46.206,172.667 46.198,172.667 46.261 C 172.667 46.323,172.760 46.301,172.875 46.212 C 172.990 46.123,173.571 45.958,174.167 45.846 C 174.762 45.734,175.438 45.599,175.667 45.545 C 176.362 45.382,177.134 45.347,179.917 45.352 C 182.712 45.356,182.845 45.364,183.917 45.593 C 184.283 45.671,184.621 45.742,184.667 45.751 C 185.075 45.828,185.500 46.055,185.500 46.196 C 185.500 46.291,185.612 46.326,185.750 46.273 C 185.887 46.220,186.000 46.234,186.000 46.303 C 186.000 46.372,186.237 46.568,186.528 46.740 C 187.380 47.243,188.667 48.849,188.667 49.409 C 188.667 49.538,188.792 49.768,188.945 49.921 C 189.157 50.133,189.241 50.611,189.300 51.933 C 189.392 53.995,189.460 53.946,187.583 53.151 C 186.976 52.893,185.083 52.521,183.778 52.403 C 183.070 52.339,182.450 52.221,182.401 52.141 C 182.288 51.959,176.370 51.972,176.258 52.154 C 176.213 52.227,175.668 52.338,175.046 52.401 C 173.492 52.559,171.428 52.996,171.361 53.181 C 171.331 53.265,171.209 53.333,171.092 53.333 C 170.740 53.333,169.167 54.033,169.167 54.189 C 169.167 54.268,169.053 54.333,168.913 54.333 C 168.314 54.333,166.228 56.074,165.001 57.597 C 164.618 58.073,164.151 58.999,164.291 59.005 C 164.360 59.008,164.271 59.121,164.093 59.255 C 163.915 59.390,163.831 59.500,163.905 59.500 C 163.980 59.500,163.952 59.607,163.843 59.738 C 163.259 60.442,162.584 66.048,162.991 66.821 C 163.067 66.965,163.175 67.421,163.232 67.833 C 163.433 69.299,164.548 71.926,164.882 71.720 C 164.976 71.662,165.001 71.697,164.937 71.800 C 164.733 72.131,166.225 73.786,167.470 74.609 C 167.991 74.953,168.509 75.325,168.622 75.435 C 168.735 75.546,169.185 75.771,169.622 75.935 C 170.059 76.099,170.454 76.274,170.500 76.325 C 170.546 76.375,170.696 76.447,170.833 76.483 C 170.971 76.520,171.458 76.653,171.917 76.780 C 172.375 76.906,173.331 77.056,174.042 77.113 C 174.752 77.170,175.333 77.276,175.333 77.349 C 175.333 77.512,178.017 77.494,178.250 77.330 C 178.342 77.265,178.999 77.165,179.710 77.108 C 180.998 77.004,182.508 76.701,182.667 76.515 C 182.713 76.461,182.825 76.412,182.917 76.406 C 183.683 76.359,186.953 74.357,188.127 73.216 C 189.253 72.122,189.333 72.194,189.333 74.308 C 189.333 76.860,188.887 76.667,194.773 76.667 C 198.919 76.667,199.649 76.630,199.926 76.404 C 200.104 76.260,200.148 76.194,200.024 76.258 C 199.869 76.338,199.887 76.240,200.082 75.942 C 200.438 75.398,200.409 50.199,200.051 49.583 C 199.881 49.291,199.719 48.492,199.392 46.333 C 199.344 46.012,199.210 45.600,199.094 45.417 C 198.978 45.233,198.789 44.783,198.673 44.417 C 198.557 44.050,198.245 43.406,197.981 42.985 C 197.716 42.565,197.500 42.134,197.500 42.027 C 197.500 41.921,197.375 41.833,197.222 41.833 C 197.069 41.833,196.988 41.789,197.042 41.736 C 197.186 41.592,195.297 39.423,195.019 39.413 C 194.963 39.411,194.699 39.204,194.434 38.954 C 194.169 38.705,193.899 38.500,193.834 38.500 C 193.770 38.500,193.547 38.352,193.337 38.170 C 193.128 37.989,192.892 37.881,192.812 37.930 C 192.732 37.979,192.667 37.959,192.667 37.884 C 192.667 37.752,191.149 36.993,190.771 36.936 C 190.668 36.920,190.508 36.862,190.417 36.806 C 190.325 36.750,189.800 36.609,189.250 36.491 C 188.700 36.374,188.175 36.224,188.083 36.158 C 187.992 36.092,187.674 36.058,187.377 36.082 C 187.081 36.107,186.872 36.072,186.914 36.004 C 187.117 35.676,179.513 35.575,176.588 35.868 M376.588 35.871 C 375.765 35.952,375.053 36.080,375.004 36.156 C 374.956 36.232,374.617 36.340,374.250 36.396 C 373.883 36.452,373.471 36.524,373.333 36.555 C 373.196 36.586,372.727 36.670,372.292 36.742 C 371.856 36.813,371.500 36.925,371.500 36.991 C 371.500 37.057,371.406 37.115,371.292 37.119 C 371.177 37.124,370.446 37.338,369.667 37.595 C 368.887 37.853,368.212 38.070,368.167 38.080 C 366.852 38.339,366.360 39.438,367.012 40.661 C 367.214 41.040,367.833 43.113,367.833 43.410 C 367.833 43.551,367.897 43.667,367.975 43.667 C 368.053 43.667,368.251 44.173,368.416 44.792 C 368.580 45.410,368.778 45.999,368.856 46.099 C 368.933 46.199,368.947 46.331,368.886 46.392 C 368.400 46.878,369.887 47.110,371.083 46.735 C 371.542 46.592,371.992 46.459,372.083 46.441 C 372.175 46.422,372.344 46.349,372.458 46.277 C 372.573 46.206,372.667 46.198,372.667 46.261 C 372.667 46.323,372.760 46.301,372.875 46.212 C 372.990 46.123,373.571 45.958,374.167 45.846 C 374.762 45.734,375.438 45.603,375.667 45.554 C 376.921 45.290,382.833 45.165,382.833 45.403 C 382.833 45.487,382.877 45.512,382.930 45.459 C 383.040 45.349,385.365 45.962,385.497 46.136 C 385.545 46.199,385.886 46.400,386.256 46.583 C 386.986 46.945,387.964 47.952,388.360 48.750 C 388.497 49.025,388.744 49.512,388.909 49.833 C 389.275 50.544,389.486 53.386,389.187 53.571 C 389.006 53.683,387.938 53.397,387.576 53.140 C 387.345 52.975,383.754 52.333,383.064 52.333 C 382.765 52.333,382.473 52.257,382.415 52.164 C 382.281 51.947,376.378 51.960,376.243 52.177 C 376.190 52.263,375.860 52.333,375.508 52.333 C 374.635 52.333,371.430 52.986,371.361 53.178 C 371.331 53.264,371.179 53.333,371.023 53.333 C 370.712 53.333,367.935 54.699,367.514 55.059 C 367.253 55.282,365.370 57.182,364.930 57.667 C 364.805 57.804,364.579 58.214,364.428 58.577 C 364.277 58.941,364.080 59.284,363.990 59.340 C 363.899 59.396,363.794 59.605,363.756 59.805 C 363.717 60.004,363.637 60.247,363.577 60.343 C 363.128 61.070,362.673 66.199,363.001 66.833 C 363.072 66.971,363.177 67.431,363.234 67.855 C 363.381 68.956,363.740 70.067,364.125 70.613 C 364.307 70.872,364.509 71.254,364.574 71.464 C 364.639 71.673,364.874 72.026,365.096 72.248 C 365.318 72.470,365.500 72.720,365.500 72.804 C 365.500 73.154,368.813 75.765,369.369 75.854 C 369.550 75.883,369.708 75.930,370.000 76.040 C 370.137 76.092,370.400 76.191,370.583 76.260 C 370.767 76.330,370.973 76.374,371.042 76.360 C 371.110 76.345,371.167 76.416,371.167 76.518 C 371.167 76.619,371.279 76.659,371.417 76.606 C 371.554 76.554,371.667 76.572,371.667 76.647 C 371.667 76.812,373.708 77.167,374.657 77.167 C 375.029 77.167,375.333 77.238,375.333 77.325 C 375.333 77.505,377.995 77.509,378.250 77.329 C 378.342 77.265,379.017 77.163,379.750 77.104 C 381.789 76.938,383.941 76.213,385.500 75.165 C 385.729 75.011,386.231 74.679,386.616 74.427 C 387.000 74.174,387.664 73.638,388.091 73.234 C 389.236 72.153,389.295 72.202,389.360 74.308 C 389.440 76.880,388.955 76.667,394.729 76.664 C 397.399 76.663,399.680 76.600,399.798 76.525 C 400.595 76.020,399.853 46.294,399.017 45.267 C 398.935 45.166,398.773 44.765,398.657 44.375 C 398.542 43.985,398.384 43.667,398.307 43.667 C 398.230 43.667,398.167 43.558,398.167 43.425 C 398.167 43.137,397.194 41.640,396.884 41.450 C 396.764 41.377,396.667 41.242,396.667 41.151 C 396.667 40.928,395.132 39.333,394.917 39.333 C 394.824 39.333,394.649 39.176,394.529 38.984 C 394.408 38.792,394.270 38.674,394.221 38.724 C 394.171 38.773,393.970 38.659,393.774 38.472 C 393.203 37.926,390.775 36.848,389.459 36.556 C 388.794 36.409,388.175 36.232,388.083 36.163 C 387.992 36.094,387.674 36.058,387.377 36.082 C 387.081 36.107,386.872 36.072,386.915 36.003 C 387.128 35.658,379.720 35.563,376.588 35.871 M296.297 45.142 C 296.332 45.247,296.458 45.333,296.576 45.333 C 296.890 45.333,298.366 46.009,298.631 46.273 C 298.755 46.398,298.915 46.500,298.985 46.500 C 299.055 46.500,299.428 46.800,299.813 47.167 C 300.199 47.533,300.586 47.833,300.674 47.833 C 300.761 47.833,300.833 47.967,300.833 48.130 C 300.833 48.293,300.983 48.535,301.167 48.667 C 301.350 48.799,301.500 49.003,301.500 49.120 C 301.500 49.237,301.579 49.333,301.677 49.333 C 301.774 49.333,301.810 49.402,301.758 49.487 C 301.706 49.571,301.762 49.740,301.883 49.862 C 302.099 50.080,302.345 50.570,302.424 50.938 C 302.538 51.465,302.704 51.833,302.829 51.833 C 302.906 51.833,302.928 51.991,302.877 52.184 C 302.827 52.376,302.868 52.585,302.968 52.647 C 303.460 52.951,303.618 58.028,303.186 59.667 C 302.963 60.515,302.397 62.072,302.146 62.525 C 302.027 62.741,301.951 63.018,301.976 63.142 C 302.002 63.266,301.942 63.317,301.844 63.257 C 301.747 63.196,301.667 63.231,301.667 63.335 C 301.667 63.752,299.201 66.500,298.827 66.500 C 298.752 66.500,298.591 66.597,298.470 66.715 C 297.186 67.966,291.372 68.308,290.670 67.173 C 290.621 67.092,290.471 67.002,290.338 66.972 C 290.029 66.901,289.920 66.823,288.936 65.962 C 288.489 65.570,288.058 65.269,287.978 65.292 C 287.898 65.315,287.833 65.258,287.833 65.165 C 287.833 65.072,287.589 64.641,287.291 64.207 C 286.699 63.346,286.089 62.157,286.137 61.958 C 286.153 61.890,286.098 61.833,286.014 61.833 C 285.859 61.833,285.188 59.233,285.068 58.167 C 284.825 56.013,284.813 55.620,284.984 55.450 C 285.084 55.349,285.167 54.972,285.167 54.612 C 285.167 53.765,285.815 51.000,286.014 51.000 C 286.098 51.000,286.167 50.905,286.167 50.789 C 286.167 50.673,286.312 50.306,286.491 49.974 C 286.669 49.642,286.775 49.330,286.726 49.282 C 286.678 49.233,286.795 49.110,286.986 49.008 C 287.177 48.905,287.335 48.730,287.337 48.619 C 287.346 48.042,289.601 46.149,290.851 45.669 C 291.346 45.479,291.900 45.257,292.083 45.174 C 292.729 44.884,292.932 44.862,294.575 44.907 C 295.637 44.935,296.257 45.020,296.297 45.142 M341.245 45.163 C 341.362 45.260,341.592 45.288,341.756 45.225 C 341.936 45.156,342.014 45.176,341.953 45.275 C 341.897 45.365,342.128 45.539,342.467 45.661 C 343.359 45.981,344.721 47.104,345.909 48.500 C 346.261 48.913,347.452 51.213,347.592 51.750 C 347.752 52.361,347.781 52.466,347.832 52.625 C 347.855 52.694,347.860 52.818,347.844 52.901 C 347.829 52.985,347.913 53.113,348.031 53.186 C 348.356 53.387,348.344 59.287,348.017 59.489 C 347.889 59.568,347.827 59.744,347.879 59.880 C 347.931 60.015,347.913 60.191,347.839 60.271 C 347.764 60.351,347.575 60.867,347.419 61.417 C 347.262 61.967,347.081 62.454,347.017 62.500 C 346.952 62.546,346.687 62.996,346.427 63.500 C 346.167 64.004,345.814 64.538,345.644 64.686 C 345.473 64.834,345.333 65.041,345.333 65.145 C 345.333 65.248,345.269 65.333,345.191 65.333 C 345.113 65.333,344.832 65.541,344.566 65.794 C 342.709 67.566,339.462 68.373,337.000 67.674 C 336.587 67.557,336.175 67.449,336.083 67.434 C 335.385 67.320,333.113 65.509,332.296 64.415 C 331.954 63.957,331.596 63.491,331.500 63.378 C 331.405 63.265,331.328 63.134,331.330 63.087 C 331.343 62.760,331.305 62.662,331.073 62.430 C 330.930 62.287,330.661 61.513,330.475 60.710 C 330.289 59.907,330.063 59.111,329.973 58.941 C 329.760 58.540,329.765 53.978,329.979 53.846 C 330.068 53.791,330.183 53.388,330.234 52.951 C 330.286 52.513,330.407 52.008,330.503 51.827 C 330.600 51.647,330.640 51.500,330.593 51.500 C 330.470 51.500,331.750 49.105,332.112 48.658 C 333.298 47.193,334.682 46.075,335.917 45.584 C 336.283 45.438,336.733 45.249,336.917 45.165 C 337.680 44.814,340.823 44.812,341.245 45.163 M185.683 58.957 C 186.453 59.098,187.138 59.296,187.206 59.398 C 187.273 59.500,187.329 59.518,187.331 59.438 C 187.332 59.358,187.427 59.368,187.542 59.460 C 187.762 59.638,188.780 59.896,188.896 59.804 C 189.778 59.106,189.739 63.887,188.851 65.330 C 188.566 65.793,188.333 66.212,188.333 66.262 C 188.333 66.367,187.035 67.610,186.468 68.047 C 185.923 68.469,185.272 68.784,184.676 68.915 C 184.394 68.976,184.201 69.088,184.247 69.161 C 184.725 69.935,177.372 69.756,176.619 68.976 C 176.455 68.806,176.222 68.667,176.103 68.667 C 175.983 68.667,175.751 68.518,175.587 68.337 C 175.423 68.156,175.205 68.056,175.103 68.114 C 175.000 68.172,174.968 68.163,175.032 68.092 C 175.095 68.022,174.963 67.766,174.738 67.524 C 174.514 67.282,174.287 66.933,174.235 66.750 C 174.183 66.567,174.036 66.185,173.908 65.901 C 173.428 64.836,174.446 60.335,175.033 60.922 C 175.086 60.975,175.276 60.831,175.455 60.603 C 175.635 60.374,176.150 60.014,176.599 59.802 C 177.049 59.590,177.455 59.366,177.502 59.305 C 177.946 58.721,183.175 58.499,185.683 58.957 M385.500 58.886 C 385.637 58.923,386.069 59.011,386.458 59.081 C 386.848 59.152,387.167 59.275,387.167 59.355 C 387.167 59.435,387.223 59.488,387.292 59.474 C 387.360 59.459,387.529 59.491,387.667 59.544 C 387.804 59.597,388.254 59.746,388.667 59.875 L 389.417 60.110 389.472 61.513 C 389.526 62.892,389.246 65.167,389.023 65.167 C 388.960 65.167,388.761 65.448,388.580 65.792 C 388.278 66.363,387.379 67.350,386.554 68.015 C 386.090 68.389,385.257 68.787,384.667 68.917 C 384.390 68.977,384.201 69.088,384.247 69.161 C 384.498 69.568,379.604 69.846,378.139 69.508 C 376.521 69.135,374.765 67.888,374.325 66.800 C 374.202 66.498,374.030 66.201,373.943 66.141 C 373.674 65.958,373.710 63.013,373.983 62.844 C 374.111 62.765,374.169 62.580,374.113 62.433 C 374.057 62.287,374.070 62.167,374.144 62.167 C 374.217 62.167,374.383 61.962,374.514 61.713 C 374.811 61.141,375.900 60.000,376.147 60.000 C 376.250 60.000,376.333 59.913,376.333 59.806 C 376.333 59.699,376.377 59.655,376.431 59.709 C 376.582 59.860,377.512 59.487,377.407 59.317 C 377.355 59.234,377.412 59.161,377.532 59.154 C 377.652 59.147,377.938 59.104,378.167 59.058 C 378.396 59.012,378.921 58.909,379.333 58.829 C 380.036 58.693,384.951 58.738,385.500 58.886 " stroke="none" fill="#bc1434" fill-rule="evenodd"></path><path id="path1" d="" stroke="none" fill="#c01434" fill-rule="evenodd"></path><path id="path2" d="" stroke="none" fill="#c01434" fill-rule="evenodd"></path><path id="path3" d="" stroke="none" fill="#c01434" fill-rule="evenodd"></path><path id="path4" d="" stroke="none" fill="#c01434" fill-rule="evenodd"></path></g></svg>