<svg id="svg" xmlns="http://www.w3.org/2000/svg" viewBox="0 0 400.14 111.5"><title>Llgoo2</title><g id="svgg"><path id="path4" d="M.48.45,0,.86l0,37.5,0,37.5.54.5a10.88,10.88,0,0,0,2.27,1.77s.18.07.31.26a2.48,2.48,0,0,0,.77.6,2.65,2.65,0,0,1,.62.41,14,14,0,0,0,1.33,1l1.58,1.17C9,83,9.86,83.52,10,83.43s.12,0,.05,0,.27.5.62.59a1.56,1.56,0,0,1,.5.4,8.21,8.21,0,0,0,1.56,1.18,4.38,4.38,0,0,1,.45.33l.76.61c.31.24.86.67,1.21,1a3.82,3.82,0,0,0,.76.51,1.37,1.37,0,0,1,.44.3,11.13,11.13,0,0,0,.9.7,11.67,11.67,0,0,1,1,.79,1.43,1.43,0,0,0,.63.38c.11,0,.21.07.21.16s.34.36.75.6a2.62,2.62,0,0,1,.75.55c0,.07.24.26.54.43a6.28,6.28,0,0,1,1,.79,1.69,1.69,0,0,0,.72.47.39.39,0,0,1,.32.26,1.26,1.26,0,0,0,.56.49,3.69,3.69,0,0,1,.74.52,5.69,5.69,0,0,0,1.59,1.06c.08,0,.23.15.33.34a.61.61,0,0,0,.43.33.43.43,0,0,1,.35.26.94.94,0,0,0,.45.43c.72.32,1.1.59,1,.7s0,.15.21.22a5.8,5.8,0,0,1,1.07.75,4.48,4.48,0,0,0,.89.64,8.88,8.88,0,0,1,1.74,1.37.24.24,0,0,0,.21.13c.14,0,.31.13,1.21.89a5.58,5.58,0,0,0,.82.55c.25.13.45.31.45.4a.17.17,0,0,0,.18.16c.17,0,.4.16,1,.71a1.14,1.14,0,0,0,.49.29.18.18,0,0,1,.18.12,3.3,3.3,0,0,0,.85.71c.46.32,1.07.79,1.36,1a2.26,2.26,0,0,0,.65.46,1.11,1.11,0,0,1,.43.29,7.61,7.61,0,0,0,1.43,1,2,2,0,0,1,.53.39A9.51,9.51,0,0,0,43.88,109a3.8,3.8,0,0,1,.65.5,4.63,4.63,0,0,0,.92.64c.4.23.67.42.58.42s.57.56,1.12.8c1,.44,3.78.08,3.78-.49,0-.09.07-.12.16-.06s.22,0,.29-.14a1.88,1.88,0,0,1,.67-.5,2.06,2.06,0,0,0,.66-.5,3.82,3.82,0,0,1,.85-.67c.39-.24.7-.52.7-.61s.11-.16.24-.16a2.25,2.25,0,0,0,.83-.55,4.64,4.64,0,0,1,1-.75c.23-.11.42-.27.42-.36s.11-.17.24-.17a1.15,1.15,0,0,0,.58-.43c.18-.23.37-.42.43-.41a4.69,4.69,0,0,0,1.32-.92,3.18,3.18,0,0,1,.81-.54,1.12,1.12,0,0,0,.56-.45.39.39,0,0,1,.3-.25,2.53,2.53,0,0,0,.81-.59,2.84,2.84,0,0,1,.77-.58,10.38,10.38,0,0,0,2-1.5,1.53,1.53,0,0,1,.47-.33,6.81,6.81,0,0,0,1.33-.93A4.23,4.23,0,0,1,67,99a9.11,9.11,0,0,0,1.5-1.18A9.14,9.14,0,0,1,69.54,97a3.74,3.74,0,0,0,.74-.53A4.61,4.61,0,0,1,71,96c.36-.22.58-.4.48-.41s.11-.17.44-.38a10.86,10.86,0,0,0,2.31-1.63A2.38,2.38,0,0,1,75,93a2,2,0,0,0,.75-.59,2.31,2.31,0,0,1,.75-.58,2,2,0,0,0,.75-.59c0-.08.16-.19.34-.25a2.91,2.91,0,0,0,.8-.51c.68-.61.76-.67,1.07-.79.16-.06.29-.18.29-.28a.18.18,0,0,1,.18-.17,28.79,28.79,0,0,0,3.82-2.87c.32-.3.59-.51.61-.46a17.41,17.41,0,0,0,2.89-2.2c0-.08.12-.14.25-.14s.25-.07.25-.16a.18.18,0,0,1,.18-.17,3.62,3.62,0,0,0,1-.67,4.55,4.55,0,0,1,.93-.66,8,8,0,0,0,1.77-1.4c.27-.26.49-.43.49-.37a4.69,4.69,0,0,0,1.09-.73,6.81,6.81,0,0,1,1.26-.84c.09,0,.12-.07.07-.16s.16-.27.49-.41a1.39,1.39,0,0,0,.69-.5c.06-.14.16-.26.24-.26a3.42,3.42,0,0,0,1.52-1.17c.36-.67.41-74,.06-74.89C97,0,101.51.05,48.62.05H1L.48.45M124.9,23.33c-.49.13-.49.27-.59,26.31-.09,24.34-.06,27.05.29,26.83a.19.19,0,0,1,.25.08c.23.38,35.87.21,36.25-.17a1.4,1.4,0,0,0-.14-1.82,5.87,5.87,0,0,1-.51-.84,7.3,7.3,0,0,0-.71-1.1c-.17-.19-.26-.39-.2-.45s0-.12-.08-.12-.19,0-.18-.12c0-.23-.22-.88-.34-.88s-.26-.3-.43-.66a1.7,1.7,0,0,0-.41-.67c-.07,0-.25-.3-.42-.66a3.47,3.47,0,0,0-.6-1,.87.87,0,0,1-.32-.46,1.67,1.67,0,0,0-.32-.6l-.32-.41-10.22-.09-10.22-.08V45.12c0-17.85,0-21.39-.23-21.62s-9.62-.42-10.55-.17m149.79.26c-.43.62-.39,52.46.05,52.85s9.79.42,9.94-.06c.06-.18.18-.29.26-.24A5.93,5.93,0,0,0,285.1,74c0-2.63-.05-2.59,1.45-1.14a15.48,15.48,0,0,0,4.15,3.24c.31.11.56.27.56.35s.08.1.17,0,.17,0,.17,0a9.4,9.4,0,0,0,2.92.7c.23,0,.41.07.41.17a15.55,15.55,0,0,0,4.32,0,8.79,8.79,0,0,1,1.5-.32,6.4,6.4,0,0,0,1.44-.35c.1-.09.24-.12.3,0s.11,0,.11-.07.15-.14.33-.1.33,0,.33-.09a.18.18,0,0,1,.18-.19,5,5,0,0,0,1.75-.8c-.05,0,.28-.27.74-.5s.79-.47.74-.55,0-.15.17-.15c.47,0,3.29-3,3.91-4.15a2.16,2.16,0,0,1,.36-.52.61.61,0,0,0,.18-.33,1.26,1.26,0,0,1,.27-.47.94.94,0,0,0,.2-.55c0-.18.07-.29.15-.24s.48-.69.77-1.7c.06-.21.16-.37.23-.37s.14-.1.16-.21c0-.3.7-3,.82-3.29a2.46,2.46,0,0,0,.12-.59,1.41,1.41,0,0,1,.16-.56c.42-.69.22-10.39-.23-10.69a3.87,3.87,0,0,1-.33-1.16,8.69,8.69,0,0,0-.54-1.75,6.35,6.35,0,0,1-.4-1,16.82,16.82,0,0,0-1.24-2.59.66.66,0,0,1-.12-.29,11.54,11.54,0,0,0-1.69-2.33c-.22-.21-.34-.38-.26-.38a6.29,6.29,0,0,0-1.08-1.16,7.91,7.91,0,0,0-1.38-1.17.75.75,0,0,1-.39-.21l-.5-.44a15.52,15.52,0,0,0-3-1.51,3.58,3.58,0,0,1-.83-.35c-.77-.58-7.93-.92-8.75-.4a2.2,2.2,0,0,1-.67.21c-.22,0-.44.12-.47.21a.27.27,0,0,1-.24.16c-.43,0-1.6.55-1.51.71s0,.12-.09,0-.33,0-.51.23-.35.34-.38.31a13.82,13.82,0,0,0-3,2.73,8.86,8.86,0,0,1-1.29,1.3c-.07,0-.13-4-.13-9,0-8.48,0-9-.31-9.25-.54-.49-9.75-.4-10.1.1m73.58,0c-.11.2-.17,3.58-.17,9.25,0,8.38,0,8.94-.29,8.89a.82.82,0,0,1-.46-.39,4.54,4.54,0,0,0-.64-.83l-.75-.81a30.11,30.11,0,0,0-3.56-2.84c-.12,0-.63-.24-1.14-.47-2.11-1-9.28-1.08-10.23-.13a.66.66,0,0,1-.4.17,17,17,0,0,0-3.54,1.7c-.42.31-1.76,1.4-2.41,1.95A25.84,25.84,0,0,0,322,43.41a14.64,14.64,0,0,0-1.36,2.77s0,.19-.16.32a1,1,0,0,0-.25.64,1.09,1.09,0,0,1-.24.64,1.4,1.4,0,0,0-.29.8,1.36,1.36,0,0,1-.17.65c-.38.28-.83,4.23-.84,7.32,0,3.42,0,4,.21,4.08a1,1,0,0,1,.17.64,17,17,0,0,0,.81,3.68,5.61,5.61,0,0,1,.42,1.13,3.85,3.85,0,0,0,.51,1.19,1.7,1.7,0,0,1,.35.67A16.4,16.4,0,0,0,323,71a8.55,8.55,0,0,0,.84,1,3.63,3.63,0,0,1,.62.75c0,.47,3.75,3,4.94,3.4.4.12.73.27.73.35s.07.1.16,0,.17,0,.17,0a9.28,9.28,0,0,0,3.1.7c.32,0,.55.07.5.15-.16.25,3.89.09,5.4-.22a12,12,0,0,0,4.19-1.74,5.36,5.36,0,0,1,1.06-.86.2.2,0,0,0,.12-.22c0-.07,0-.09.11,0a12.33,12.33,0,0,0,2.69-2.58c0-.08.11-.11.24-.06s.25.6.29,2.4a12.38,12.38,0,0,0,.19,2.45c.3.3,9.84.24,10.07-.06s.3-52.77,0-53-9.9-.23-10.1.15m-294.5.22a4.35,4.35,0,0,1,.65,1.07,2.8,2.8,0,0,0,.51.88c.07,0,.24.28.4.62s.54,1.08.85,1.63.81,1.44,1.1,2A6.84,6.84,0,0,0,58,31.17a5.44,5.44,0,0,1,.57.93c.81,1.66,1.1,2.13,1.22,2s.12-.06.1,0a12.77,12.77,0,0,0,2,3.72.31.31,0,0,1,.14.26,3.48,3.48,0,0,0,.41,1c.23.4.64,1.14.92,1.65,1,1.74,1.09,1.92,1.25,2s.11.12,0,.13-.05.1.09.21a2.91,2.91,0,0,1,.7,1.31c0,.06.12.24.3.4a1,1,0,0,1,.33.48,1.64,1.64,0,0,0,.29.6,2.49,2.49,0,0,1,.32.64.59.59,0,0,0,.18.34,8.34,8.34,0,0,1,.8,1.31,4.61,4.61,0,0,0,.78,1.21c.07,0,.13.1.13.23a7.22,7.22,0,0,0,1.21,2.07c.07,0,.08.13,0,.21s0,.15.06.15.21.19.27.42.17.42.26.42.17.14.17.32a.54.54,0,0,0,.17.43,2.11,2.11,0,0,1,.41.67c.13.32.31.58.41.58s.17.15.17.33.07.33.16.33.23.25.33.55A7.83,7.83,0,0,0,73,57.52a4,4,0,0,1,.5.87,4,4,0,0,0,.48.87,7.59,7.59,0,0,1,.68,1.25c.07.21.18.34.26.3s.18.11.25.36a4.5,4.5,0,0,0,.56,1.13l.56.84a1.09,1.09,0,0,1-.15.71l-.26.54H69.74c-3.38,0-6.14-.06-6.14-.13a2.23,2.23,0,0,0-.46-.62,2.2,2.2,0,0,1-.48-.73.63.63,0,0,0-.23-.36.32.32,0,0,1-.18-.27c0-.28-.18-.73-.33-.73a.15.15,0,0,1-.16-.13,34.23,34.23,0,0,0-2.16-3.87,1.86,1.86,0,0,1-.37-.66s-.06-.21-.19-.35a8,8,0,0,1-.62-1.08,6,6,0,0,0-.61-1A.75.75,0,0,1,57.6,54a5.09,5.09,0,0,0-.55-1,11.84,11.84,0,0,1-.77-1.39,1.31,1.31,0,0,0-.43-.62c-.12,0-.27-.3-.33-.57a2.11,2.11,0,0,0-.39-.81,7,7,0,0,1-.69-1.15,8.49,8.49,0,0,0-.51-.91,6.68,6.68,0,0,1-.5-.91,5.71,5.71,0,0,0-.52-.92,5.29,5.29,0,0,1-.4-.67,2.62,2.62,0,0,0-.41-.66,7.14,7.14,0,0,1-.56-1,4.29,4.29,0,0,0-.56-1,4,4,0,0,1-.54-.93,2.4,2.4,0,0,0-.54-.88.16.16,0,0,1-.14-.17c0-.34-.8-1.44-1-1.44s-.35.21-.46.47-.24.48-.3.48a3.58,3.58,0,0,0-.51.91c-.22.51-.47.92-.56.92s-.11.12-.05.26,0,.22,0,.17-.3.23-.5.62C45.62,44,45,45.13,44.75,45.55a12.82,12.82,0,0,0-1.49,2.73.51.51,0,0,1-.22.39c-.24.14-.85,1.22-.69,1.22s-.06.16-.26.37a4.9,4.9,0,0,0-1,2c0,.05,0,.1-.09.1s-.35.33-.56.75a2.32,2.32,0,0,1-.47.75,4,4,0,0,0-.6,1.16c-.06.27-.56,1.22-.57,1.09a10.52,10.52,0,0,0-1.55,2.58,15.33,15.33,0,0,1-1.49,2.56,3,3,0,0,0-.47.88c-.11.31-.27.56-.37.56s-.14,0-.08.1,0,.19-.05.29l-.59.73-.43.55H21.65L21.43,64c-.28-.52-.08-1.17.76-2.45a4,4,0,0,0,.57-1.08c0-.12.07-.21.14-.21s.27-.3.43-.67a3.93,3.93,0,0,1,.51-.88,6.7,6.7,0,0,0,.67-1.17,3,3,0,0,1,.57-1c.07,0,.23-.3.35-.66A2.56,2.56,0,0,1,26,55a.91.91,0,0,0,.3-.44,6.34,6.34,0,0,1,.56-1.1,20.55,20.55,0,0,0,1.88-3.47.81.81,0,0,1,.32-.5,1.56,1.56,0,0,0,.47-.72,2.32,2.32,0,0,1,.44-.75c.09-.06.14-.17.09-.24s0-.23.16-.35a.64.64,0,0,0,.25-.35,1.13,1.13,0,0,1,.29-.48,11.24,11.24,0,0,0,1-1.62,14.42,14.42,0,0,1,.77-1.38,1.14,1.14,0,0,0,.22-.46c.06-.2.19-.37.28-.37s.12-.08.06-.17,0-.16.07-.16.21-.17.28-.38a3.37,3.37,0,0,1,.44-.83c.18-.25.28-.46.22-.46a2.8,2.8,0,0,1,.5-.84c.32-.46.55-.91.49-1s0-.16.07-.16.27-.21.4-.46a14.63,14.63,0,0,1,1.45-2.54,4.4,4.4,0,0,0,.51-.92,6.22,6.22,0,0,1,.63-1.12c.13-.16.19-.29.13-.29s0-.1.06-.21c.39-.47,1-1.46.87-1.46s0-.06,0-.13a8.49,8.49,0,0,0,1.26-2c.27-.5.66-1.18.85-1.5a3.7,3.7,0,0,0,.38-.8.62.62,0,0,1,.2-.34,3.57,3.57,0,0,0,.57-.94,6,6,0,0,1,.7-1.12,1,1,0,0,0,.29-.49,1,1,0,0,1,.28-.5c.34-.39,9.59-.47,10.06-.09M227.35,35.54c-.46.08-1,.18-1.25.24l-.88.2c-.25.05-.46.16-.46.23s-.24.18-.54.24a5.4,5.4,0,0,0-1.41.69,5.67,5.67,0,0,1-1,.58,26.19,26.19,0,0,0-3.51,3.46c-.78,1-.88.8-.88-2,0-3.48.55-3.17-5.58-3.17-4.41,0-4.95,0-5.25.29-.47.4-.54,39.65-.07,40.12.3.3,10.1.39,10.57.1.22-.14.26-1.79.34-12.54.05-6.81.16-12.57.23-12.8s.23-.64.35-.92.33-.78.47-1.12c1-2.48,4.84-4.12,7.94-3.4a3.34,3.34,0,0,1,1.47.55.79.79,0,0,0,.46.22,5.13,5.13,0,0,1,1.74,1.66.17.17,0,0,0,.15.18c.12,0,.27.28.6,1.16,0,.05.12.3.22.56.46,1.11.54,3.18.53,14.42,0,10.58,0,11.6.27,11.88.44.49,10.46.47,10.72,0,.12-.22.17-4.22.17-11.83,0-8.22.06-11.53.19-11.61s.12-.16,0-.26-.17-.14,0-.14.21-.21.21-.45a9.61,9.61,0,0,1,1.05-3.45,8.57,8.57,0,0,1,2.1-2c.19-.06.35-.18.35-.27s.05-.14.12-.12a2.25,2.25,0,0,0,.63-.2,14.53,14.53,0,0,1,5.5,0,5.56,5.56,0,0,1,2.88,2.45,5.48,5.48,0,0,1,.9,2.27c-.05.05,0,.1.09.1s.15.22.13.5,0,.54.1.59.15,5.37.15,12.09c0,8.06.06,12.11.17,12.33.22.4,10.19.49,10.73.1.36-.26.34-30.38,0-30.81a2.33,2.33,0,0,1-.31-.9,2.64,2.64,0,0,0-.25-.84c-.09-.1-.1-.23-.05-.28s0-.22-.1-.36-.17-.26-.12-.26a11.87,11.87,0,0,0-1.35-2.68,19.37,19.37,0,0,0-3-2.89c-.19-.07-.35-.19-.35-.27s-.05-.15-.12-.13a3.46,3.46,0,0,1-.88-.33,3.86,3.86,0,0,0-1-.36c-.11,0-.21-.07-.21-.15,0-1-10.52-1-11.18,0a.54.54,0,0,1-.33.19,4.86,4.86,0,0,0-1.74.68,1.29,1.29,0,0,1-.53.32A12.1,12.1,0,0,0,243.09,40c-1.81,1.82-1.77,1.79-2.16,1.44a1,1,0,0,1-.33-.53.2.2,0,0,0-.18-.22c-.1,0-.14-.06-.09-.14s-.14-.38-.41-.68a2.24,2.24,0,0,1-.49-.68,2.41,2.41,0,0,0-.66-.63c-.37-.27-.63-.53-.58-.58s-.1-.13-.33-.19-.43-.18-.43-.27-.1-.16-.22-.16a.92.92,0,0,1-.51-.31,2.61,2.61,0,0,0-1-.52,3.56,3.56,0,0,1-.91-.37.36.36,0,0,0-.36-.07.13.13,0,0,1-.21-.06c-.15-.43-5.13-.8-6.89-.52m-50.83.38a6.7,6.7,0,0,0-1.58.27,11.32,11.32,0,0,1-2.84.63,3.51,3.51,0,0,0-.87.26c-.16.08-.8.3-1.42.49l-1.3.39a.65.65,0,0,1-.26,0,.87.87,0,0,0-.39.22,1.31,1.31,0,0,1-.57.28c-.64.1-.89,1.1-.47,1.9a16.42,16.42,0,0,1,.62,1.83,7.6,7.6,0,0,0,.52,1.5,5.74,5.74,0,0,1,.4,1.21,2.47,2.47,0,0,0,.44,1.12c.09,0,.12.12.06.27-.25.67.79.89,2.15.47.46-.15.91-.28,1-.3a1.35,1.35,0,0,0,.38-.16c.11-.07.21-.08.21,0s.09,0,.21-.05a5.42,5.42,0,0,1,1.29-.36l1.5-.3a19.55,19.55,0,0,1,4.25-.2,14.79,14.79,0,0,1,4,.25l.75.15c.41.08.83.31.83.45s.11.13.25.08.25,0,.25,0,.24.26.53.43a5.69,5.69,0,0,1,2.14,2.67.88.88,0,0,0,.28.51c.21.22.29.69.35,2,.09,2.06.16,2-1.72,1.21a18.17,18.17,0,0,0-3.8-.74,4.29,4.29,0,0,1-1.38-.27,34,34,0,0,0-6.14,0,3.75,3.75,0,0,1-1.21.24,13.33,13.33,0,0,0-3.69.78.29.29,0,0,1-.27.16,5.28,5.28,0,0,0-1.92.85c0,.08-.12.15-.26.15-.59,0-2.68,1.74-3.91,3.26-.38.48-.85,1.4-.71,1.41s0,.11-.2.25-.26.24-.18.24,0,.11-.07.24c-.58.7-1.25,6.31-.85,7.08a3.9,3.9,0,0,1,.24,1c.2,1.46,1.32,4.09,1.65,3.88.1-.06.12,0,.06.08-.21.33,1.29,2,2.53,2.81a13.87,13.87,0,0,1,1.15.83,4.72,4.72,0,0,0,1,.5,4.52,4.52,0,0,1,.88.39,1,1,0,0,0,.33.16l1.09.29a14.06,14.06,0,0,0,2.12.34,3.37,3.37,0,0,1,1.29.23,8.69,8.69,0,0,0,2.92,0,7.12,7.12,0,0,1,1.46-.22,9.46,9.46,0,0,0,3-.59.34.34,0,0,1,.25-.11c.76,0,4-2,5.21-3.19s1.2-1,1.2,1.09c0,2.55-.44,2.36,5.44,2.36,4.15,0,4.88,0,5.16-.26s.22-.21.1-.15-.14,0,0-.32c.36-.54.33-25.74,0-26.35a14.38,14.38,0,0,1-.66-3.25,2.77,2.77,0,0,0-.29-.92,5.2,5.2,0,0,1-.43-1,6.87,6.87,0,0,0-.69-1.43,3.8,3.8,0,0,1-.48-1c0-.11-.12-.19-.28-.19s-.23,0-.18-.1a7.64,7.64,0,0,0-2-2.32,2.6,2.6,0,0,1-.58-.46,2.44,2.44,0,0,0-.6-.46,1.53,1.53,0,0,1-.5-.33c-.21-.18-.45-.29-.53-.24s-.14,0-.14,0a6.2,6.2,0,0,0-1.9-.95,1.48,1.48,0,0,1-.35-.13,7.12,7.12,0,0,0-1.17-.32,5.46,5.46,0,0,1-1.17-.33,1.42,1.42,0,0,0-.7-.08c-.3,0-.51,0-.46-.07.2-.33-7.41-.43-10.33-.14m200,0a5.36,5.36,0,0,0-1.58.29,1.86,1.86,0,0,1-.76.24c-.37,0-.78.13-.92.16l-1,.18a1.8,1.8,0,0,0-.79.25c0,.07-.09.13-.21.13s-.84.22-1.62.48-1.46.47-1.5.48a1.63,1.63,0,0,0-1.16,2.58,15.65,15.65,0,0,1,.82,2.75c0,.14.07.26.15.26a3.22,3.22,0,0,1,.44,1.12,6.55,6.55,0,0,0,.44,1.31c.07.1.09.23,0,.29-.49.49,1,.72,2.19.35.46-.15.91-.28,1-.3a1.35,1.35,0,0,0,.38-.16c.11-.07.21-.08.21,0s.09,0,.21-.05a5.42,5.42,0,0,1,1.29-.36l1.5-.29c1.25-.27,7.16-.39,7.16-.15,0,.08.05.1.1,0a8.6,8.6,0,0,1,2.57.68,4.67,4.67,0,0,0,.76.45,5.6,5.6,0,0,1,2.1,2.16c.14.28.39.76.55,1.09.37.71.58,3.55.28,3.73a2.91,2.91,0,0,1-1.61-.43,29.3,29.3,0,0,0-4.51-.8,1,1,0,0,1-.65-.17,29,29,0,0,0-6.18,0c-.05.09-.38.16-.73.16a17.09,17.09,0,0,0-4.15.84c0,.09-.18.16-.34.16a18.47,18.47,0,0,0-3.5,1.72c-.27.22-2.15,2.12-2.59,2.61a4.43,4.43,0,0,0-.5.91,2.35,2.35,0,0,1-.44.76.86.86,0,0,0-.23.47,2.12,2.12,0,0,1-.18.54c-.45.72-.91,5.85-.58,6.49a4.48,4.48,0,0,1,.24,1,6.88,6.88,0,0,0,.89,2.76,3.92,3.92,0,0,1,.45.85,2.31,2.31,0,0,0,.52.78,1.45,1.45,0,0,1,.4.56,14.77,14.77,0,0,0,3.87,3,3,3,0,0,1,.63.18l.58.22a1.14,1.14,0,0,0,.46.1c.07,0,.13.06.13.16s.11.14.25.09.25,0,.25,0a9.17,9.17,0,0,0,3,.52c.37,0,.67.07.67.16a7.93,7.93,0,0,0,2.92,0,7.46,7.46,0,0,1,1.5-.22,12.61,12.61,0,0,0,5.75-1.94l1.12-.74A13,13,0,0,0,388,73.29c1.15-1.08,1.21-1,1.27,1.07.08,2.57-.4,2.36,5.37,2.36,2.67,0,4.95-.07,5.07-.14.8-.51,0-30.23-.78-31.26a3.63,3.63,0,0,1-.36-.89c-.12-.39-.27-.71-.35-.71s-.14-.11-.14-.24a5.94,5.94,0,0,0-1.28-2,.44.44,0,0,1-.22-.3,7,7,0,0,0-1.75-1.81c-.09,0-.27-.16-.39-.35s-.26-.31-.31-.26-.25-.07-.44-.26a14.07,14.07,0,0,0-4.32-1.91,9.54,9.54,0,0,1-1.38-.39,1.39,1.39,0,0,0-.7-.09c-.3,0-.51,0-.46-.07.21-.35-7.2-.44-10.33-.14m-80.29,9.27a.3.3,0,0,0,.28.2,6.41,6.41,0,0,1,2.05.94.81.81,0,0,0,.36.22,3.69,3.69,0,0,1,.82.67,3.31,3.31,0,0,0,.87.67c.08,0,.15.13.15.29a.78.78,0,0,0,.34.54.78.78,0,0,1,.33.45.2.2,0,0,0,.18.22c.1,0,.13.06.08.15s0,.25.12.37a2.57,2.57,0,0,1,.55,1.08c.11.53.28.9.4.9s.1.15.05.35a.45.45,0,0,0,.09.46c.49.3.65,5.38.22,7a20.17,20.17,0,0,1-1,2.86,1.11,1.11,0,0,0-.17.61c0,.13,0,.18-.13.12s-.18,0-.18.08a11.06,11.06,0,0,1-2.84,3.16.72.72,0,0,0-.36.22c-1.28,1.25-7.1,1.59-7.8.46a.56.56,0,0,0-.33-.21c-.31-.07-.42-.14-1.4-1a3.26,3.26,0,0,0-1-.67.11.11,0,0,1-.15-.12,3.72,3.72,0,0,0-.54-1A7.42,7.42,0,0,1,286.07,62c0-.07,0-.12-.12-.12a15,15,0,0,1-.95-3.67c-.24-2.15-.26-2.55-.08-2.72a1.58,1.58,0,0,0,.18-.84,11.63,11.63,0,0,1,.85-3.61c.08,0,.15-.09.15-.21a2.78,2.78,0,0,1,.32-.81c.18-.34.29-.65.24-.7s.07-.17.26-.27.35-.28.35-.39c0-.58,2.26-2.47,3.51-3l1.23-.49c.65-.29.85-.32,2.5-.27,1.06,0,1.68.11,1.72.23m44.95,0a.59.59,0,0,0,.51.06c.18-.07.26-.05.19,0s.18.26.52.38a10.34,10.34,0,0,1,3.44,2.84,18.86,18.86,0,0,1,1.68,3.25c.16.61.19.72.24.88a.61.61,0,0,1,0,.27.32.32,0,0,0,.18.29c.33.2.32,6.1,0,6.3a.34.34,0,0,0-.14.39.43.43,0,0,1,0,.39,6,6,0,0,0-.42,1.15,4.73,4.73,0,0,1-.4,1.08,6.25,6.25,0,0,0-.59,1,5.36,5.36,0,0,1-.78,1.19.84.84,0,0,0-.32.46c0,.1-.06.19-.14.19a1.81,1.81,0,0,0-.62.46,8.46,8.46,0,0,1-7.57,1.88c-.41-.12-.82-.23-.92-.24a11.42,11.42,0,0,1-3.78-3c-.34-.46-.7-.93-.8-1a.77.77,0,0,1-.17-.29.67.67,0,0,0-.26-.66,5.74,5.74,0,0,1-.59-1.72A13.49,13.49,0,0,0,329.9,59a20.58,20.58,0,0,1,0-5.09,2,2,0,0,0,.26-.9,4.53,4.53,0,0,1,.26-1.12c.1-.18.14-.33.09-.33A16.1,16.1,0,0,1,332,48.71a10.22,10.22,0,0,1,3.81-3.07l1-.42c.76-.35,3.9-.36,4.33,0M185.61,59a4.92,4.92,0,0,1,1.53.44c.06.1.12.12.12,0s.1-.07.21,0a2.8,2.8,0,0,0,1.36.35c.88-.7.84,4.08-.05,5.52a8.41,8.41,0,0,0-.52.93,13.65,13.65,0,0,1-1.86,1.79,4.79,4.79,0,0,1-1.79.87c-.28.06-.48.17-.43.24.48.78-6.88.6-7.63-.18a1,1,0,0,0-.52-.31,1,1,0,0,1-.51-.33c-.17-.18-.38-.28-.49-.22s-.13,0-.07,0-.07-.32-.29-.56a2.57,2.57,0,0,1-.5-.78c-.06-.18-.2-.56-.33-.85-.48-1.06.54-5.56,1.12-5,.06.06.25-.09.43-.31a3.94,3.94,0,0,1,1.14-.81,4.91,4.91,0,0,0,.9-.49c.45-.59,5.68-.81,8.18-.35m199.82-.07c.14,0,.57.12,1,.19s.71.2.71.28,0,.13.12.12a.75.75,0,0,1,.38.07l1,.33.75.23,0,1.41c.06,1.37-.22,3.65-.45,3.65a1.74,1.74,0,0,0-.44.62,9.25,9.25,0,0,1-2,2.23,5.49,5.49,0,0,1-1.89.9c-.28.06-.47.17-.42.24.25.41-4.64.69-6.11.35a5.93,5.93,0,0,1-3.81-2.71,2.14,2.14,0,0,0-.39-.66,6.91,6.91,0,0,1,0-3.29.35.35,0,0,0,.13-.41c-.05-.15,0-.27,0-.27s.23-.21.37-.45a5,5,0,0,1,1.63-1.72.18.18,0,0,0,.18-.19c0-.11.05-.15.1-.1s1.08-.22,1-.39,0-.16.12-.16a6.1,6.1,0,0,0,.64-.1l1.16-.23a45.11,45.11,0,0,1,6.17.06M-.07.05m0,0,0,0,0,0" transform="translate(0.07 -0.05)" fill="#bc1434" fill-rule="evenodd"/></g></svg>